<svg aria-hidden="true" style="position: absolute; width: 0; height: 0; overflow: hidden;" version="1.1" xmlns="http://www.w3.org/2000/svg" xmlns:xlink="http://www.w3.org/1999/xlink">
<defs>
<symbol id="icon-expand" viewBox="0 0 20 20">
<path d="M20 19.063v-18.125c0-0.517-0.421-0.938-0.938-0.938h-18.125c-0.517 0-0.938 0.421-0.938 0.938v5.625c0 0.172 0.14 0.313 0.313 0.313s0.313-0.14 0.313-0.313v-5.625c0-0.172 0.141-0.313 0.313-0.313h18.125c0.172 0 0.313 0.14 0.313 0.313v18.125c0 0.172-0.141 0.313-0.313 0.313h-5.625c-0.172 0-0.313 0.14-0.313 0.313s0.14 0.313 0.313 0.313h5.625c0.517 0 0.938-0.421 0.938-0.938zM0.938 8.125c-0.517 0-0.938 0.421-0.938 0.938v10c0 0.517 0.421 0.938 0.938 0.938h10c0.517 0 0.938-0.421 0.938-0.938v-10.496l4.375-4.375v4.246c0 0.172 0.14 0.313 0.313 0.313s0.313-0.14 0.313-0.313v-5c0-0.172-0.14-0.313-0.313-0.313h-5c-0.172 0-0.313 0.14-0.313 0.313s0.14 0.313 0.313 0.313h4.245l-4.375 4.375h-10.495zM11.25 19.063c0 0.172-0.141 0.313-0.313 0.313h-10c-0.172 0-0.313-0.14-0.313-0.313v-10c0-0.172 0.141-0.313 0.313-0.313h10.313v10.313z"></path>
</symbol>
<symbol id="icon-location" viewBox="0 0 20 20">
<path d="M10.001 11.091c2.068 0 3.75-1.682 3.75-3.75s-1.682-3.75-3.75-3.75c-2.068 0-3.75 1.682-3.75 3.75s1.682 3.75 3.75 3.75zM10.001 4.216c1.724 0 3.125 1.401 3.125 3.125s-1.401 3.125-3.125 3.125c-1.724 0-3.125-1.401-3.125-3.125s1.401-3.125 3.125-3.125zM10 0c-4.136 0-7.5 3.322-7.5 7.501 0 4.375 3.751 8.851 6.485 11.996 0.010 0.012 0.449 0.503 0.991 0.503 0.001 0 0.046 0 0.048 0 0.542 0 0.981-0.491 0.991-0.503 2.736-3.146 6.486-7.621 6.486-11.996 0-4.178-3.364-7.501-7.501-7.501zM10.073 18.677c-0.013 0.012-0.051 0.040-0.084 0.061-0.006-0.017-0.053-0.054-0.081-0.083-2.291-2.636-6.158-7.084-6.158-11.154 0-3.446 2.804-6.251 6.25-6.251 3.447 0 6.251 2.804 6.251 6.251 0 4.070-3.867 8.518-6.178 11.176z"></path>
</symbol>
<symbol id="icon-location1" viewBox="0 0 20 20">
<path d="M10.001 11.091c2.068 0 3.75-1.682 3.75-3.75s-1.682-3.75-3.75-3.75c-2.068 0-3.75 1.682-3.75 3.75s1.682 3.75 3.75 3.75zM10.001 4.216c1.724 0 3.125 1.401 3.125 3.125s-1.401 3.125-3.125 3.125c-1.724 0-3.125-1.401-3.125-3.125s1.401-3.125 3.125-3.125zM10 0c-4.136 0-7.5 3.322-7.5 7.501 0 4.375 3.751 8.851 6.485 11.996 0.010 0.012 0.449 0.503 0.991 0.503 0.001 0 0.046 0 0.048 0 0.542 0 0.981-0.491 0.991-0.503 2.736-3.146 6.486-7.621 6.486-11.996 0-4.178-3.364-7.501-7.501-7.501zM10.073 18.677c-0.013 0.012-0.051 0.040-0.084 0.061-0.006-0.017-0.053-0.054-0.081-0.083-2.291-2.636-6.158-7.084-6.158-11.154 0-3.446 2.804-6.251 6.25-6.251 3.447 0 6.251 2.804 6.251 6.251 0 4.070-3.867 8.518-6.178 11.176z"></path>
</symbol>
<symbol id="icon-world" viewBox="0 0 20 20">
<path d="M9.688 0c-5.351 0-9.688 4.337-9.688 9.688s4.337 9.688 9.688 9.688 9.688-4.337 9.688-9.688-4.337-9.688-9.688-9.688zM18.109 9.375h-3.748c-0.034-1.384-0.281-2.707-0.717-3.918 0.844-0.352 1.624-0.82 2.335-1.373 1.264 1.419 2.055 3.262 2.13 5.291zM9.342 18.108c-1.039-0.865-1.91-1.988-2.548-3.293 0.818-0.256 1.685-0.396 2.581-0.424v3.718c-0.011 0-0.022-0.001-0.033-0.001zM10.032 1.268c1.179 0.981 2.141 2.296 2.791 3.829-0.891 0.304-1.838 0.481-2.824 0.513v-4.343c0.012 0.001 0.022 0.001 0.033 0.002zM11.073 1.374c1.725 0.287 3.273 1.092 4.478 2.259-0.654 0.502-1.369 0.927-2.143 1.249-0.569-1.348-1.367-2.54-2.335-3.507zM9.375 1.266v4.343c-0.986-0.032-1.933-0.208-2.824-0.513 0.651-1.533 1.613-2.847 2.791-3.829 0.011-0.001 0.021-0.001 0.032-0.002zM5.966 4.882c-0.772-0.322-1.487-0.747-2.142-1.249 1.204-1.166 2.752-1.972 4.477-2.259-0.969 0.967-1.766 2.159-2.336 3.508zM6.316 5.673c0.964 0.334 1.991 0.529 3.059 0.562v3.141h-3.737c0.034-1.309 0.266-2.559 0.678-3.703zM9.375 10v3.766c-0.986 0.030-1.939 0.191-2.837 0.481-0.541-1.289-0.861-2.724-0.9-4.246h3.737zM8.302 18.001c-1.546-0.257-2.949-0.93-4.091-1.907 0.616-0.427 1.281-0.788 1.993-1.063 0.545 1.13 1.258 2.133 2.098 2.97zM10 18.109v-3.718c0.895 0.029 1.762 0.169 2.581 0.424-0.638 1.304-1.509 2.428-2.547 3.293-0.011 0-0.022 0.001-0.033 0.001zM13.171 15.031c0.711 0.274 1.376 0.636 1.992 1.063-1.141 0.977-2.545 1.651-4.091 1.907 0.84-0.837 1.553-1.84 2.098-2.97zM12.837 14.246c-0.899-0.289-1.852-0.451-2.837-0.481v-3.766h3.737c-0.039 1.522-0.359 2.957-0.9 4.246zM10 9.375v-3.141c1.068-0.032 2.095-0.227 3.059-0.561 0.411 1.143 0.643 2.394 0.678 3.703h-3.737zM3.396 4.084c0.711 0.553 1.491 1.021 2.334 1.373-0.437 1.211-0.683 2.533-0.717 3.918h-3.748c0.075-2.028 0.866-3.871 2.131-5.291zM1.266 10h3.748c0.039 1.597 0.373 3.105 0.939 4.461-0.792 0.309-1.53 0.72-2.211 1.207-1.467-1.461-2.394-3.457-2.476-5.668zM15.634 15.667c-0.681-0.486-1.419-0.898-2.212-1.207 0.568-1.356 0.901-2.864 0.94-4.461h3.748c-0.082 2.211-1.009 4.207-2.476 5.668z"></path>
</symbol>
<symbol id="icon-calendar" viewBox="0 0 20 20">
<path d="M18.334 1.875h-2.709v-1.25c0-0.346-0.279-0.625-0.625-0.625s-0.625 0.279-0.625 0.625v1.25h-3.75v-1.25c0-0.346-0.28-0.625-0.625-0.625s-0.625 0.279-0.625 0.625v1.25h-3.75v-1.25c0-0.346-0.28-0.625-0.625-0.625s-0.625 0.279-0.625 0.625v1.25h-2.708c-0.921 0-1.667 0.746-1.667 1.666v14.792c0 0.921 0.746 1.667 1.667 1.667h16.667c0.921 0 1.666-0.746 1.666-1.667v-14.792c0-0.921-0.746-1.666-1.666-1.666zM18.75 18.333c0 0.23-0.187 0.417-0.416 0.417h-16.667c-0.23 0-0.417-0.187-0.417-0.417v-14.792c0-0.229 0.187-0.416 0.417-0.416h2.708v1.25c0 0.346 0.28 0.625 0.625 0.625s0.625-0.279 0.625-0.625v-1.25h3.75v1.25c0 0.346 0.28 0.625 0.625 0.625s0.625-0.279 0.625-0.625v-1.25h3.75v1.25c0 0.346 0.279 0.625 0.625 0.625s0.625-0.279 0.625-0.625v-1.25h2.709c0.229 0 0.416 0.187 0.416 0.416v14.792zM4.375 7.5h2.5v1.875h-2.5zM4.375 10.625h2.5v1.875h-2.5zM4.375 13.75h2.5v1.875h-2.5zM8.75 13.75h2.5v1.875h-2.5zM8.75 10.625h2.5v1.875h-2.5zM8.75 7.5h2.5v1.875h-2.5zM13.125 13.75h2.5v1.875h-2.5zM13.125 10.625h2.5v1.875h-2.5zM13.125 7.5h2.5v1.875h-2.5z"></path>
</symbol>
<symbol id="icon-calendar1" viewBox="0 0 20 20">
<path d="M16.875 19.375h-13.75c-0.69 0-1.25-0.56-1.25-1.25v-13.75c0-0.691 0.56-1.25 1.25-1.25h1.25v0.625c0 1.036 0.839 1.875 1.875 1.875s1.875-0.839 1.875-1.875v-0.625h3.75v0.625c0 1.036 0.84 1.875 1.875 1.875s1.875-0.839 1.875-1.875v-0.625h1.25c0.69 0 1.25 0.559 1.25 1.25v13.75c0 0.69-0.56 1.25-1.25 1.25zM16.875 7.5h-13.75v10.625h13.75v-10.625zM6.25 10.625h-1.875v-1.875h1.875v1.875zM6.25 13.75h-1.875v-1.875h1.875v1.875zM6.25 16.875h-1.875v-1.875h1.875v1.875zM9.375 10.625h-1.875v-1.875h1.875v1.875zM9.375 13.75h-1.875v-1.875h1.875v1.875zM9.375 16.875h-1.875v-1.875h1.875v1.875zM12.5 10.625h-1.875v-1.875h1.875v1.875zM12.5 13.75h-1.875v-1.875h1.875v1.875zM12.5 16.875h-1.875v-1.875h1.875v1.875zM15.625 10.625h-1.875v-1.875h1.875v1.875zM15.625 13.75h-1.875v-1.875h1.875v1.875zM15.625 16.875h-1.875v-1.875h1.875v1.875zM13.731 5c-0.68 0-1.231-0.551-1.231-1.231v-1.289c0-0.68 0.551-1.231 1.231-1.231s1.231 0.551 1.231 1.231v1.289c0 0.679-0.551 1.231-1.231 1.231zM6.231 5c-0.68 0-1.231-0.551-1.231-1.231v-1.289c0-0.68 0.551-1.231 1.231-1.231s1.231 0.551 1.231 1.231v1.289c0 0.679-0.551 1.231-1.231 1.231z"></path>
</symbol>
<symbol id="icon-add" viewBox="0 0 20 20">
<path d="M16.563 16.875h-1.875c-0.172 0-0.313-0.14-0.313-0.313s0.14-0.313 0.313-0.313h1.563v-1.563c0-0.172 0.14-0.313 0.313-0.313s0.313 0.14 0.313 0.313v1.875c0 0.172-0.141 0.313-0.313 0.313zM16.563 13.125c-0.172 0-0.313-0.14-0.313-0.313v-1.875c0-0.172 0.14-0.313 0.313-0.313s0.313 0.14 0.313 0.313v1.875c0 0.172-0.141 0.313-0.313 0.313zM16.563 9.375c-0.172 0-0.313-0.14-0.313-0.313v-1.875c0-0.172 0.14-0.313 0.313-0.313s0.313 0.14 0.313 0.313v1.875c0 0.172-0.141 0.313-0.313 0.313zM16.563 5.625c-0.172 0-0.313-0.14-0.313-0.313v-1.563h-1.563c-0.172 0-0.313-0.14-0.313-0.313s0.14-0.313 0.313-0.313h1.875c0.172 0 0.313 0.14 0.313 0.313v1.875c0 0.172-0.141 0.313-0.313 0.313zM12.813 16.875h-1.875c-0.172 0-0.313-0.14-0.313-0.313s0.14-0.313 0.313-0.313h1.875c0.172 0 0.313 0.14 0.313 0.313s-0.141 0.313-0.313 0.313zM12.813 3.75h-1.875c-0.172 0-0.313-0.14-0.313-0.313s0.14-0.313 0.313-0.313h1.875c0.172 0 0.313 0.14 0.313 0.313s-0.141 0.313-0.313 0.313zM12.461 9.375c0.345 0 0.625 0.279 0.625 0.625s-0.28 0.625-0.625 0.625h-1.875v1.875c0 0.345-0.28 0.625-0.625 0.625s-0.625-0.28-0.625-0.625v-1.875h-1.875c-0.345 0-0.625-0.28-0.625-0.625s0.279-0.625 0.625-0.625h1.875v-1.875c0-0.346 0.279-0.625 0.625-0.625s0.625 0.279 0.625 0.625v1.875h1.875zM9.063 3.75h-1.875c-0.172 0-0.313-0.14-0.313-0.313s0.14-0.313 0.313-0.313h1.875c0.172 0 0.313 0.14 0.313 0.313s-0.141 0.313-0.313 0.313zM5.313 16.875h-1.875c-0.172 0-0.313-0.14-0.313-0.313v-1.875c0-0.172 0.14-0.313 0.313-0.313s0.313 0.14 0.313 0.313v1.563h1.563c0.172 0 0.313 0.14 0.313 0.313s-0.14 0.313-0.313 0.313zM5.313 3.75h-1.563v1.563c0 0.172-0.14 0.313-0.313 0.313s-0.313-0.14-0.313-0.313v-1.875c0-0.172 0.14-0.313 0.313-0.313h1.875c0.172 0 0.313 0.14 0.313 0.313s-0.14 0.313-0.313 0.313zM3.438 6.875c0.172 0 0.313 0.14 0.313 0.313v1.875c0 0.172-0.14 0.313-0.313 0.313s-0.313-0.14-0.313-0.313v-1.875c0-0.172 0.14-0.313 0.313-0.313zM3.438 10.625c0.172 0 0.313 0.14 0.313 0.313v1.875c0 0.172-0.14 0.313-0.313 0.313s-0.313-0.14-0.313-0.313v-1.875c0-0.172 0.14-0.313 0.313-0.313zM7.188 16.25h1.875c0.172 0 0.313 0.14 0.313 0.313s-0.141 0.313-0.313 0.313h-1.875c-0.172 0-0.313-0.14-0.313-0.313s0.14-0.313 0.313-0.313z"></path>
</symbol>
<symbol id="icon-mail-envelope-closed" viewBox="0 0 20 20">
<path d="M3.322 5.796l6.991 6.079 6.992-6.080c0.121 0.115 0.196 0.278 0.196 0.459v7.491c0 0.348-0.281 0.629-0.627 0.629h-13.121c-0.353 0-0.627-0.282-0.627-0.629v-7.491c0-0.181 0.076-0.343 0.197-0.458zM3.752 5c-0.692 0-1.252 0.559-1.252 1.246v7.507c0 0.688 0.556 1.246 1.252 1.246h13.121c0.692 0 1.252-0.559 1.252-1.246v-7.507c0-0.688-0.556-1.246-1.252-1.246h-13.121zM10.313 11.063l-6.25-5.438h12.5l-6.25 5.438z"></path>
</symbol>
<symbol id="icon-trophy-one" viewBox="0 0 20 20">
<path d="M10 16.25v-3.125c-2.068-0.002-3.75-1.678-3.75-3.746v-0.004c-2.188-0.938-2.5-5.625-2.5-5.625h13.125c0 0-0.313 4.688-2.5 5.625v0 0.004c0 2.068-1.679 3.744-3.75 3.746v3.125h2.5v0.625h-5.625v-0.625h2.5zM6.875 4.375v4.995c0 1.728 1.4 3.13 3.126 3.13h0.624c1.726 0 3.126-1.397 3.126-3.13v-4.995h-6.875zM6.25 4.375h-1.813c0 0 0.346 3.263 1.813 4.313v-4.313zM14.364 4.375v4.3c1.466-1.050 1.813-4.3 1.813-4.3h-1.813zM10.623 11.25h-0.623v-3.75h-1.25v-0.625c1.031 0 1.25-0.56 1.25-1.25h0.623v5.625z"></path>
</symbol>
<symbol id="icon-trophy" viewBox="0 0 20 20">
<path d="M13.125 15.625h1.875v2.5h-9.375v-2.5h1.875v-1.875h2.5v-2.5c-2.068-0.002-3.75-1.678-3.75-3.746v-0.004c-2.188-0.938-2.5-5.625-2.5-5.625h13.125c0 0-0.313 4.688-2.5 5.625v0.004c0 2.068-1.679 3.744-3.75 3.746v2.5h2.5v1.875zM6.875 2.5v4.995c0 1.728 1.4 3.13 3.126 3.13h0.624c1.726 0 3.126-1.397 3.126-3.13v-4.995h-6.875zM6.25 2.5h-1.813c0 0 0.346 3.263 1.813 4.313v-4.313zM14.364 2.5v4.3c1.466-1.050 1.813-4.3 1.813-4.3h-1.813zM8.125 14.375v1.25h4.375v-1.25h-4.375zM6.25 16.25v1.25h8.125v-1.25h-8.125z"></path>
</symbol>
<symbol id="icon-lock-stripes" viewBox="0 0 20 20">
<path d="M4.375 14.375h11.875v-3.746c0-0.692-0.557-1.254-1.248-1.254h-9.378c-0.689 0-1.248 0.561-1.248 1.254v3.746zM4.375 15v1.25h0.469l0.938-1.25h-1.406zM4.375 16.875c0.002 0.691 0.558 1.25 1.248 1.25h9.378c0.688 0 1.246-0.559 1.248-1.25h-11.875zM16.25 16.25v-1.25h-0.469l-0.938 1.25h1.406zM5.625 8.75v-2.188c0-2.589 2.099-4.687 4.688-4.687 2.584 0 4.688 2.098 4.688 4.687v2.188c1.037 0.003 1.875 0.844 1.875 1.881v6.238c0 1.046-0.842 1.881-1.88 1.881h-9.364c-1.039 0-1.88-0.842-1.88-1.881v-6.238c0-1.044 0.839-1.878 1.875-1.881v0 0zM5.469 16.25h1.25l0.938-1.25h-1.25l-0.938 1.25zM7.344 16.25h1.25l0.938-1.25h-1.25l-0.938 1.25zM9.219 16.25h1.25l0.938-1.25h-1.25l-0.938 1.25zM11.094 16.25h1.25l0.938-1.25h-1.25l-0.938 1.25zM12.969 16.25h1.25l0.938-1.25h-1.25l-0.938 1.25zM6.25 8.75h0.625v-2.182c0-1.905 1.539-3.443 3.438-3.443 1.895 0 3.438 1.542 3.438 3.443v2.182h0.625v-2.192c0-2.241-1.823-4.058-4.063-4.058-2.244 0-4.063 1.818-4.063 4.058v2.192zM7.5 8.75h5.625v-2.187c0-1.554-1.262-2.813-2.813-2.813-1.553 0-2.813 1.256-2.813 2.813v2.187z"></path>
</symbol>
<symbol id="icon-key" viewBox="0 0 20 20">
<path d="M11.583 12.167l-2.833 2.833h-1.875v1.875h-1.875v1.875h-3.125v-3.125l6.583-6.583c-0.215-0.577-0.333-1.202-0.333-1.855 0-2.934 2.378-5.313 5.313-5.313s5.313 2.378 5.313 5.313c0 2.934-2.378 5.313-5.313 5.313-0.652 0-1.277-0.118-1.855-0.333v0 0zM8.749 9.688l-6.249 6.249v2.188h1.875v-1.875h1.875v-1.875h2.188l2.499-2.499c-0.928-0.496-1.691-1.26-2.188-2.188v0 0zM18.125 7.188c0-2.589-2.099-4.688-4.688-4.688s-4.688 2.099-4.688 4.688c0 2.589 2.099 4.688 4.688 4.688s4.688-2.099 4.688-4.688v0 0zM16.875 5.625v0 0c0 1.036-0.839 1.875-1.875 1.875s-1.875-0.839-1.875-1.875c0-1.036 0.839-1.875 1.875-1.875s1.875 0.839 1.875 1.875zM16.25 5.625c0-0.69-0.56-1.25-1.25-1.25s-1.25 0.56-1.25 1.25c0 0.69 0.56 1.25 1.25 1.25s1.25-0.56 1.25-1.25v0 0z"></path>
</symbol>
<symbol id="icon-flag" viewBox="0 0 20 20">
<path d="M5 6.563v-4.063c0 0 1.86-1.398 5 0s5 0 5 0v6.875c0 0-1.861 1.367-5 0-2.070-0.901-3.584-0.614-4.375-0.314v9.064h-0.625v-11.563zM9.7 3.063c-2.561-1.126-4.075-0.188-4.075-0.188v5.524c0 0 1.971-0.792 4.61 0.403 2.472 1.119 4.151 0.213 4.151 0.213v-5.577c0 0-1.889 0.855-4.686-0.375v0 0z"></path>
</symbol>
<symbol id="icon-mail-envelope-open" viewBox="0 0 20 20">
<path d="M10.313 1.875l-7.813 6.875v8.754c0 0.688 0.556 1.246 1.252 1.246h13.121c0.692 0 1.252-0.559 1.252-1.246v-8.754l-7.813-6.875zM8.438 14.375h3.75l4.375 3.75h-12.5l4.375-3.75zM10.313 2.688l6.875 6.063-5.625 5h-2.5l-5.625-5 6.875-6.063zM17.303 17.953l-4.803-4.193 5-4.386v8.125c0 0.177-0.076 0.339-0.197 0.453v0 0zM3.322 17.953v0 0c-0.121-0.115-0.197-0.276-0.197-0.453v-8.125l5 4.386-4.803 4.193z"></path>
</symbol>
<symbol id="icon-dots-three-horizontal" viewBox="0 0 20 20">
<path d="M9.853 7.921c-1.148 0-2.080 0.931-2.080 2.079s0.932 2.079 2.080 2.079c1.148 0 2.078-0.931 2.078-2.079s-0.93-2.079-2.078-2.079zM3.239 7.921c-1.148 0-2.080 0.931-2.080 2.079s0.932 2.079 2.080 2.079c1.148 0 2.078-0.932 2.078-2.079s-0.93-2.079-2.078-2.079zM16.468 7.921c-1.148 0-2.080 0.931-2.080 2.079s0.932 2.079 2.080 2.079c1.148 0 2.078-0.931 2.078-2.079s-0.93-2.079-2.078-2.079z"></path>
</symbol>
<symbol id="icon-adobecreativecloud" viewBox="0 0 32 32">
<path fill="#d41818" style="fill: var(--color1, #d41818)" d="M32 15.465v1.071c-0.011 0.059-0.023 0.116-0.029 0.173-0.053 0.467-0.089 0.935-0.165 1.397-0.265 1.579-0.814 2.99-1.596 4.241l0.028-0.049c-1.173 1.925-2.825 3.455-4.793 4.449l-0.067 0.031c-1.089 0.561-2.356 0.958-3.696 1.119l-0.054 0.005c-0.289 0.035-0.58 0.065-0.869 0.097h-11.241c-0.057-0.011-0.113-0.027-0.171-0.032-1.196-0.075-2.308-0.361-3.323-0.821l0.059 0.024c-2.263-1.007-3.951-2.64-5.055-4.885-0.463-0.918-0.792-1.986-0.929-3.113l-0.005-0.047-0.095-0.803v-1.040c0.011-0.057 0.027-0.115 0.031-0.173 0.061-1.057 0.281-2.046 0.637-2.966l-0.023 0.066c0.955-2.507 2.621-4.368 4.984-5.572 1.135-0.587 2.469-0.959 3.882-1.026l0.022-0.001c0.15-0.008 0.325-0.012 0.501-0.012 0.53 0 1.051 0.039 1.561 0.113l-0.058-0.007c0.007 0.001 0.014 0.001 0.022 0.001 0.064 0 0.123-0.024 0.167-0.064l-0 0c0.926-0.966 2.009-1.773 3.21-2.382l0.068-0.031c1.094-0.563 2.367-0.962 3.712-1.125l0.054-0.005c0.312-0.036 0.623-0.067 0.933-0.099h0.96c0.061 0.009 0.125 0.021 0.187 0.028 0.476 0.057 0.953 0.093 1.424 0.173 1.546 0.272 2.925 0.825 4.142 1.608l-0.044-0.027c1.912 1.205 3.425 2.886 4.394 4.88l0.031 0.070c0.553 1.11 0.945 2.4 1.102 3.762l0.005 0.054c0.035 0.305 0.064 0.611 0.096 0.916zM14.107 8.532c0.020 0.027 0.025 0.039 0.033 0.043 0.657 0.329 1.287 0.717 1.88 1.156 0.037 0.027 0.131 0.016 0.176-0.013 1.629-1.049 3.396-1.412 5.293-1.069 1.86 0.335 3.373 1.28 4.529 2.789 1.309 1.707 1.809 3.64 1.448 5.787-0.243 1.44-0.811 2.733-1.773 3.815-1.76 1.973-3.964 2.789-6.557 2.444-1.596-0.213-2.973-0.913-4.115-2.085-1.464-1.504-2.939-2.997-4.407-4.497-0.196-0.2-0.413-0.36-0.695-0.396-0.044-0.006-0.095-0.010-0.147-0.010-0.445 0-0.828 0.264-1.002 0.643l-0.003 0.007c-0.189 0.4-0.165 0.853 0.247 1.264 1.636 1.635 3.259 3.283 4.893 4.92 0.28 0.28 0.58 0.54 0.899 0.776 1.195 0.881 2.541 1.369 4 1.565 1.144 0.155 2.28 0.12 3.407-0.136 2.149-0.492 3.931-1.607 5.333-3.329 1.105-1.342 1.859-3.013 2.096-4.845l0.005-0.048c0.056-0.393 0.088-0.847 0.088-1.308 0-0.65-0.064-1.286-0.185-1.9l0.010 0.062c-0.325-1.693-1.031-3.211-2.16-4.503-2.157-2.461-4.871-3.56-8.099-3.316-1.306 0.111-2.503 0.488-3.567 1.076l0.046-0.023c-0.636 0.339-1.184 0.715-1.686 1.144l0.013-0.011zM13.317 25.72c-0.056-0.052-0.099-0.093-0.142-0.134l0.009 0.009c-0.668-0.643-1.341-1.28-2.003-1.932-0.099-0.113-0.243-0.183-0.404-0.183-0.008 0-0.016 0-0.024 0l0.001-0c-0.669 0.016-1.34 0.019-2-0.133-3.281-0.753-5.187-4.381-3.977-7.573 0.953-2.519 3.595-4.051 6.199-3.579 1.167 0.212 2.192 0.715 3.032 1.596 1.027 1.077 2.083 2.123 3.12 3.188 0.235 0.243 0.507 0.353 0.833 0.307 0.421-0.061 0.759-0.267 0.911-0.688 0.149-0.413 0.077-0.807-0.231-1.125-1.088-1.12-2.151-2.269-3.283-3.343-2.196-2.081-4.784-2.701-7.648-1.816-3.851 1.191-6.105 5.235-5.225 9.225 0.803 3.636 3.929 6.187 7.588 6.191h3.065c0.051 0 0.101-0.005 0.179-0.009z"></path>
</symbol>
<symbol id="icon-adobeacrobatreader" viewBox="0 0 32 32">
<path fill="#ee3f24" style="fill: var(--color2, #ee3f24)" d="M31.464 20.491c-0.947-1.013-2.885-1.596-5.632-1.596-1.467 0-3.167 0.147-5.013 0.493-1.043-1.027-2.083-2.227-3.076-3.627-0.707-0.987-1.324-2.027-1.893-3.053 1.084-3.387 1.608-6.147 1.608-8.133 0-2.229-0.804-4.555-3.12-4.555-0.711 0-1.421 0.433-1.8 1.067-1.044 1.877-0.573 5.991 1.223 10.053-0.671 2.027-1.38 3.964-2.267 6.14-0.771 1.835-1.659 3.725-2.564 5.461-5.205 2.112-8.573 4.579-8.889 6.512-0.139 0.729 0.099 1.4 0.609 1.933 0.177 0.147 0.848 0.727 1.973 0.727 3.453 0 7.093-5.707 8.943-9.147 1.42-0.48 2.84-0.916 4.257-1.353 1.557-0.431 3.12-0.777 4.54-1.020 3.647 3.339 6.861 3.867 8.477 3.867 1.989 0 2.699-0.823 2.937-1.496 0.373-0.867 0.093-1.827-0.336-2.32zM29.617 21.896c-0.139 0.725-0.851 1.208-1.848 1.208-0.28 0-0.52-0.049-0.804-0.096-1.813-0.433-3.511-1.355-5.204-2.808 1.667-0.285 3.080-0.333 3.973-0.333 0.987 0 1.84 0.043 2.413 0.192 0.653 0.141 1.693 0.58 1.46 1.84zM19.587 19.62c-1.227 0.253-2.552 0.552-3.925 0.924-1.088 0.297-2.221 0.632-3.36 1.027 0.617-1.203 1.139-2.365 1.611-3.471 0.571-1.36 1.040-2.76 1.513-4.061 0.467 0.813 0.987 1.64 1.507 2.373 0.853 1.16 1.747 2.267 2.64 3.227zM13.387 1.64c0.193-0.387 0.573-0.581 0.904-0.581 0.993 0 1.183 1.157 1.183 2.080 0 1.557-0.472 3.923-1.28 6.623-1.416-3.76-1.513-6.907-0.807-8.121zM8.184 24.169c-2.413 4.057-4.731 6.577-6.151 6.577-0.28 0-0.516-0.1-0.707-0.244-0.285-0.288-0.427-0.629-0.331-1.013 0.284-1.453 2.981-3.484 7.188-5.32z"></path>
</symbol>
<symbol id="icon-adobe" viewBox="0 0 32 32">
<path fill="#f00" style="fill: var(--color3, #f00)" d="M20.133 2.667h11.867v26.667zM11.867 2.667h-11.867v26.667zM16 12.533l7.467 16.8h-5.067l-2.133-5.333h-5.467z"></path>
</symbol>
<symbol id="icon-ibm" viewBox="0 0 32 32">
<path fill="#054ada" style="fill: var(--color4, #054ada)" d="M0 21.525h6.223v0.891h-6.223zM0 19.816h6.223v0.893h-6.223zM1.773 18.111h2.671v0.895h-2.671zM1.773 16.407h2.671v0.893h-2.671zM1.773 14.7h2.671v0.895h-2.671zM1.773 12.992h2.671v0.895h-2.671zM0 11.288h6.223v0.893h-6.223zM0 9.583h6.223v0.893h-6.223zM7.109 20.709h9.569c0.16-0.275 0.283-0.577 0.356-0.893h-9.924zM15.933 16.407h-7.044v0.893h7.791c-0.205-0.345-0.454-0.64-0.742-0.89l-0.005-0.004zM8.888 14.7v0.895h7.047c0.297-0.251 0.547-0.552 0.745-0.895zM16.679 11.288h-9.569v0.893h9.924c-0.089-0.34-0.21-0.637-0.365-0.913l0.010 0.020zM13.737 9.583h-6.628v0.893h8.913c-0.598-0.554-1.4-0.893-2.283-0.893-0.001 0-0.002 0-0.003 0h0zM8.888 12.992h2.667v0.895h-2.667zM14.223 13.887h2.789c0.079-0.285 0.12-0.587 0.12-0.895h-2.909zM8.888 18.111h2.665v0.895h-2.667zM14.223 18.111v0.895h2.909c0-0.307-0.041-0.609-0.12-0.895zM7.109 22.409l6.627 0.009c0.889 0 1.691-0.343 2.289-0.893h-8.916zM17.779 21.525h4.443v0.891h-4.443zM17.779 19.816h4.443v0.893h-4.443zM19.553 18.111h2.667v0.895h-2.667zM19.553 16.407h2.667v0.893h-2.667zM23.459 11.288h-5.68v0.893h5.987zM22.869 9.583h-5.091v0.892h5.397zM27.553 21.525h4.447v0.891h-4.447zM27.553 19.816h4.447v0.893h-4.447zM27.553 18.111h2.667v0.895h-2.667zM27.553 16.407h2.667v0.893h-2.667zM27.553 15.595h2.667v-0.895h-5.081l-0.251 0.723-0.251-0.723h-5.084v0.895h2.667v-0.821l0.284 0.821h4.767l0.283-0.821zM30.221 12.992h-4.493l-0.307 0.895h4.8zM26.911 9.583l-0.308 0.892h5.397v-0.892zM24.888 22.409l0.307-0.884h-0.615zM24.299 20.709h1.179l0.317-0.893h-1.809zM23.7 19.005h2.376l0.313-0.895h-3.004zM23.103 17.3h3.572l0.305-0.893h-4.184zM19.553 13.887h4.803l-0.308-0.895h-4.495zM26.013 12.181h5.987v-0.893h-5.683z"></path>
</symbol>
<symbol id="icon-facebook" viewBox="0 0 32 32">
<path fill="#1877f2" style="fill: var(--color5, #1877f2)" d="M31.997 15.999c0-8.836-7.163-15.999-15.999-15.999s-15.999 7.163-15.999 15.999c0 7.985 5.851 14.604 13.499 15.804v-11.18h-4.062v-4.625h4.062v-3.525c0-4.010 2.389-6.225 6.043-6.225 1.75 0 3.581 0.313 3.581 0.313v3.937h-2.017c-1.987 0-2.607 1.233-2.607 2.498v3.001h4.437l-0.709 4.625h-3.728v11.18c7.649-1.2 13.499-7.819 13.499-15.804z"></path>
</symbol>
<symbol id="icon-dell" viewBox="0 0 32 32">
<path fill="#007db8" style="fill: var(--color6, #007db8)" d="M23.951 19.467v-7.035h1.629v5.605h2.853v1.427zM10.905 15.083l3.973-3.056c0.375 0.304 0.747 0.611 1.121 0.916l-3.769 2.853 0.815 0.713 3.769-2.955c0.375 0.304 0.747 0.611 1.121 0.917-0.431 0.366-1.658 1.334-2.89 2.295l-0.879 0.66 0.813 0.715 3.773-3.060-0.001-2.648h1.631v5.605h2.955v1.427h-4.483v-2.649c-1.327 1.017-2.649 2.039-3.975 3.056l-3.975-3.056c-0.192 0.972-0.871 1.813-1.749 2.259-0.38 0.196-0.796 0.32-1.22 0.368-0.244 0.029-0.489 0.023-0.735 0.023h-2.513v-7.032h2.899c0.792 0.008 1.518 0.287 2.091 0.748l-0.007-0.005c0.605 0.48 1.037 1.163 1.236 1.907zM6.219 13.86v4.28l1.271-0.001c0.56-0.019 1.054-0.286 1.378-0.694l0.003-0.004c0.315-0.393 0.506-0.897 0.506-1.446 0-0.392-0.097-0.762-0.269-1.085l0.006 0.013c-0.266-0.507-0.731-0.88-1.288-1.018l-0.014-0.003c-0.221-0.053-0.451-0.040-0.676-0.043zM15.76 0h0.449c2.641 0.036 5.117 0.709 7.292 1.872l-0.085-0.042c2.209 1.178 4.049 2.775 5.47 4.699l0.031 0.044c1.883 2.541 3.032 5.725 3.083 9.175l0 0.012v0.48c-0.054 4.152-1.686 7.913-4.322 10.719l0.008-0.008c-2.873 3.063-6.927 4.989-11.432 5.049l-0.011 0h-0.481c-1.995-0.031-3.89-0.423-5.635-1.112l0.108 0.038c-2.231-0.882-4.13-2.166-5.695-3.777l-0.004-0.004c-1.67-1.716-2.962-3.808-3.735-6.137l-0.033-0.113c-0.462-1.385-0.741-2.981-0.768-4.639l-0-0.013v-0.481c0.056-3.184 1.040-6.128 2.692-8.585l-0.036 0.057c1.582-2.364 3.7-4.252 6.188-5.52l0.092-0.043c1.988-1.016 4.33-1.628 6.81-1.669l0.014-0zM15.556 1.64c-3.268 0.096-6.244 1.275-8.6 3.187l0.026-0.021c-1.959 1.586-3.477 3.642-4.392 5.999l-0.033 0.098c-0.586 1.513-0.926 3.264-0.926 5.094 0 2.072 0.435 4.043 1.22 5.825l-0.036-0.093c1.061 2.4 2.675 4.389 4.688 5.867l0.040 0.028c1.791 1.319 3.954 2.238 6.304 2.585l0.078 0.009c1.941 0.279 3.94 0.165 5.835-0.347 2.688-0.741 4.98-2.165 6.759-4.074l0.008-0.009c1.772-1.898 3.037-4.291 3.566-6.949l0.015-0.091c0.167-0.827 0.262-1.778 0.262-2.751 0-1.24-0.155-2.443-0.447-3.592l0.022 0.101c-1.232-4.82-4.782-8.602-9.363-10.139l-0.101-0.029c-1.33-0.449-2.862-0.708-4.454-0.708-0.165 0-0.33 0.003-0.493 0.008l0.024-0.001z"></path>
</symbol>
<symbol id="icon-google" viewBox="0 0 32 32">
<path fill="#4285f4" style="fill: var(--color7, #4285f4)" d="M16.32 13.713v5.487h9.075c-0.367 2.353-2.741 6.899-9.075 6.899-5.46 0-9.919-4.519-9.919-10.099s4.46-10.099 9.919-10.099c3.107 0 5.188 1.319 6.38 2.465l4.339-4.184c-2.787-2.601-6.4-4.183-10.719-4.183-8.847 0-16 7.153-16 16s7.153 16 16 16c9.235 0 15.36-6.492 15.36-15.635 0-1.051-0.113-1.853-0.252-2.652z"></path>
</symbol>
<symbol id="icon-amazonaws" viewBox="0 0 32 32">
<path d="M9.017 13.381c0 0.395 0.043 0.713 0.117 0.947 0.085 0.235 0.192 0.491 0.341 0.768 0.053 0.084 0.075 0.169 0.075 0.244 0 0.107-0.064 0.213-0.203 0.32l-0.671 0.447c-0.077 0.056-0.173 0.091-0.276 0.096l-0.001 0c-0.107 0-0.213-0.053-0.319-0.149-0.138-0.148-0.264-0.312-0.375-0.486l-0.008-0.014c-0.098-0.162-0.208-0.368-0.309-0.579l-0.021-0.049c-0.829 0.979-1.873 1.468-3.129 1.468-0.893 0-1.607-0.255-2.128-0.765-0.521-0.512-0.787-1.192-0.787-2.044 0-0.904 0.319-1.64 0.968-2.192 0.649-0.553 1.511-0.831 2.607-0.831 0.363 0 0.735 0.032 1.128 0.085 0.395 0.053 0.8 0.139 1.224 0.235v-0.777c0-0.809-0.169-1.373-0.5-1.703-0.34-0.331-0.915-0.489-1.733-0.489-0.373 0-0.757 0.041-1.151 0.137s-0.777 0.213-1.149 0.363c-0.101 0.047-0.224 0.094-0.352 0.133l-0.022 0.006c-0.050 0.017-0.108 0.028-0.168 0.031l-0.002 0c-0.149 0-0.224-0.107-0.224-0.329v-0.521c0-0.171 0.021-0.299 0.075-0.373 0.080-0.095 0.18-0.171 0.294-0.221l0.005-0.002c0.372-0.192 0.819-0.352 1.34-0.48 0.48-0.128 1.032-0.202 1.601-0.202 0.021 0 0.043 0 0.064 0l-0.003-0c1.267 0 2.192 0.288 2.788 0.863 0.585 0.573 0.883 1.447 0.883 2.617zM4.697 15c0.351 0 0.712-0.064 1.096-0.192 0.383-0.128 0.724-0.361 1.011-0.68 0.171-0.203 0.299-0.427 0.363-0.683 0.063-0.255 0.107-0.564 0.107-0.925v-0.447c-0.264-0.069-0.597-0.132-0.935-0.177l-0.045-0.005c-0.3-0.040-0.647-0.063-0.999-0.064h-0.001c-0.713 0-1.235 0.139-1.587 0.427-0.351 0.287-0.52 0.691-0.52 1.223 0 0.5 0.127 0.873 0.393 1.128 0.255 0.267 0.627 0.395 1.117 0.395zM13.244 16.149c-0.192 0-0.32-0.032-0.405-0.107-0.085-0.064-0.16-0.213-0.224-0.415l-2.5-8.228c-0.045-0.124-0.079-0.269-0.095-0.418l-0.001-0.008c0-0.171 0.085-0.267 0.255-0.267h1.044c0.201 0 0.34 0.033 0.413 0.107 0.087 0.064 0.151 0.213 0.213 0.416l1.789 7.045 1.66-7.045c0.053-0.213 0.117-0.352 0.201-0.416 0.109-0.068 0.241-0.108 0.383-0.108 0.015 0 0.031 0 0.046 0.001l-0.002-0h0.851c0.203 0 0.341 0.033 0.427 0.107 0.084 0.064 0.16 0.213 0.201 0.416l1.681 7.131 1.841-7.131c0.064-0.213 0.139-0.352 0.213-0.416 0.105-0.068 0.234-0.108 0.372-0.108 0.015 0 0.030 0 0.045 0.001l-0.002-0h0.991c0.169 0 0.267 0.087 0.267 0.267 0 0.053-0.012 0.107-0.023 0.171-0.019 0.102-0.045 0.191-0.078 0.277l0.004-0.010-2.564 8.227c-0.064 0.213-0.139 0.351-0.224 0.415-0.104 0.067-0.231 0.108-0.367 0.108-0.013 0-0.026-0-0.039-0.001l0.002 0h-0.916c-0.201 0-0.34-0.032-0.427-0.107-0.084-0.075-0.159-0.213-0.2-0.427l-1.651-6.864-1.64 6.853c-0.053 0.213-0.116 0.352-0.2 0.427-0.087 0.075-0.236 0.107-0.427 0.107zM26.919 16.436c-0.553 0-1.107-0.064-1.639-0.191-0.532-0.128-0.947-0.267-1.224-0.427-0.171-0.095-0.287-0.201-0.329-0.297-0.040-0.088-0.063-0.19-0.064-0.298v-0.543c0-0.223 0.085-0.329 0.244-0.329 0.064 0 0.128 0.011 0.192 0.032s0.16 0.064 0.267 0.107c0.361 0.16 0.755 0.287 1.171 0.372 0.425 0.085 0.84 0.128 1.267 0.128 0.669 0 1.192-0.117 1.553-0.352 0.334-0.204 0.554-0.567 0.554-0.981 0-0.010-0-0.021-0-0.031l0 0.002c0-0.009 0-0.019 0-0.030 0-0.278-0.109-0.53-0.287-0.716l0 0c-0.192-0.201-0.555-0.383-1.076-0.553l-1.543-0.48c-0.777-0.244-1.352-0.605-1.703-1.084-0.33-0.422-0.53-0.959-0.533-1.543v-0.001c0-0.447 0.097-0.84 0.288-1.181 0.192-0.34 0.447-0.639 0.767-0.872 0.32-0.245 0.68-0.427 1.107-0.553 0.427-0.128 0.873-0.181 1.341-0.181 0.233 0 0.479 0.011 0.713 0.043 0.244 0.032 0.467 0.075 0.691 0.117 0.213 0.053 0.416 0.107 0.607 0.169 0.192 0.064 0.341 0.128 0.448 0.192 0.128 0.065 0.235 0.155 0.318 0.264l0.002 0.002c0.060 0.089 0.096 0.199 0.096 0.317 0 0.012-0 0.024-0.001 0.035l0-0.002v0.5c0 0.224-0.085 0.341-0.245 0.341-0.151-0.018-0.287-0.063-0.41-0.131l0.006 0.003c-0.579-0.262-1.255-0.415-1.968-0.415-0.026 0-0.053 0-0.079 0.001l0.004-0c-0.607 0-1.087 0.095-1.416 0.297-0.331 0.203-0.5 0.511-0.5 0.947 0 0.299 0.107 0.555 0.32 0.756 0.212 0.203 0.605 0.405 1.169 0.587l1.512 0.477c0.765 0.245 1.32 0.587 1.649 1.023s0.489 0.936 0.489 1.489c0 0.457-0.096 0.873-0.276 1.235-0.192 0.363-0.448 0.681-0.777 0.937-0.331 0.267-0.724 0.457-1.181 0.596-0.48 0.148-0.979 0.223-1.523 0.223zM28.931 21.609c-3.501 2.587-8.589 3.959-12.963 3.959-6.131 0-11.653-2.267-15.827-6.035-0.329-0.297-0.032-0.703 0.363-0.468 4.512 2.617 10.079 4.204 15.836 4.204 3.885 0 8.152-0.809 12.080-2.469 0.585-0.267 1.085 0.383 0.511 0.809zM30.389 19.948c-0.448-0.573-2.96-0.276-4.099-0.137-0.34 0.043-0.393-0.256-0.084-0.48 2-1.404 5.289-1 5.672-0.532 0.383 0.48-0.107 3.768-1.98 5.343-0.287 0.245-0.564 0.117-0.436-0.201 0.427-1.053 1.373-3.427 0.927-3.992z"></path>
</symbol>
<symbol id="icon-amazon" viewBox="0 0 32 32">
<path fill="#f90" style="fill: var(--color8, #f90)" d="M0.060 24.027c0.096-0.155 0.249-0.165 0.464-0.029 4.848 2.813 10.125 4.221 15.827 4.221 3.803 0 7.557-0.711 11.263-2.127l0.42-0.187c0.184-0.080 0.312-0.133 0.391-0.173 0.301-0.117 0.52-0.061 0.7 0.173 0.16 0.232 0.12 0.448-0.16 0.64-0.341 0.253-0.8 0.547-1.341 0.872-1.659 0.991-3.52 1.755-5.58 2.301-2.040 0.541-4.060 0.813-6.021 0.813-3.020 0-5.88-0.528-8.58-1.583-2.693-1.059-5.093-2.547-7.24-4.467-0.133-0.099-0.2-0.2-0.2-0.293 0-0.063 0.027-0.12 0.059-0.163zM8.813 15.736c0-1.34 0.329-2.484 0.991-3.436 0.66-0.947 1.56-1.667 2.72-2.153 1.061-0.447 2.341-0.767 3.883-0.96 0.52-0.061 1.377-0.137 2.56-0.232v-0.493c0-1.24-0.14-2.077-0.4-2.5-0.403-0.573-1.040-0.867-1.92-0.867h-0.243c-0.64 0.061-1.195 0.261-1.661 0.613-0.467 0.36-0.767 0.84-0.9 1.461-0.080 0.4-0.275 0.62-0.58 0.68l-3.36-0.42c-0.331-0.080-0.496-0.24-0.496-0.52 0-0.061 0.009-0.12 0.029-0.2 0.329-1.72 1.14-3 2.427-3.84 1.301-0.821 2.8-1.3 4.52-1.4h0.72c2.2 0 3.943 0.579 5.184 1.72 0.18 0.2 0.36 0.4 0.54 0.64 0.16 0.22 0.299 0.419 0.377 0.6 0.1 0.179 0.2 0.44 0.26 0.76 0.080 0.339 0.14 0.56 0.18 0.68 0.040 0.139 0.083 0.4 0.101 0.82 0.013 0.417 0.027 0.657 0.027 0.737v7.040c0 0.501 0.080 0.96 0.22 1.381 0.14 0.417 0.28 0.72 0.42 0.899l0.68 0.899c0.12 0.181 0.181 0.341 0.181 0.48 0 0.16-0.080 0.301-0.24 0.419-1.6 1.4-2.48 2.16-2.617 2.28-0.22 0.18-0.5 0.2-0.84 0.060-0.26-0.221-0.5-0.443-0.701-0.661l-0.413-0.463c-0.080-0.099-0.221-0.28-0.423-0.56l-0.4-0.58c-1.080 1.181-2.137 1.92-3.2 2.22-0.659 0.2-1.457 0.303-2.44 0.303-1.48 0-2.72-0.457-3.68-1.379-0.96-0.92-1.44-2.22-1.44-3.92zM13.817 15.152c0 0.755 0.187 1.36 0.567 1.819 0.38 0.453 0.9 0.683 1.54 0.683 0.060 0 0.141-0.009 0.26-0.027 0.12-0.021 0.179-0.031 0.221-0.031 0.819-0.213 1.44-0.737 1.899-1.571 0.22-0.373 0.38-0.773 0.48-1.213 0.12-0.427 0.16-0.787 0.18-1.067 0.020-0.26 0.020-0.72 0.020-1.34v-0.72c-1.12 0-1.979 0.080-2.56 0.24-1.7 0.48-2.56 1.56-2.56 3.24zM26.033 24.521c0.040-0.080 0.1-0.147 0.176-0.227 0.483-0.324 0.952-0.547 1.4-0.667 0.733-0.177 1.453-0.296 2.149-0.32 0.187-0.016 0.373 0 0.547 0.040 0.867 0.080 1.4 0.224 1.563 0.44 0.084 0.12 0.12 0.304 0.12 0.52v0.2c0 0.68-0.187 1.48-0.553 2.4-0.371 0.92-0.885 1.664-1.541 2.24-0.097 0.080-0.187 0.12-0.263 0.12-0.040 0-0.080 0-0.12-0.016-0.12-0.059-0.143-0.16-0.085-0.32 0.72-1.68 1.075-2.857 1.075-3.52 0-0.2-0.040-0.36-0.116-0.459-0.193-0.221-0.733-0.343-1.632-0.343-0.324 0-0.711 0.021-1.16 0.061-0.484 0.060-0.933 0.12-1.333 0.18-0.12 0-0.197-0.019-0.24-0.059-0.040-0.040-0.048-0.063-0.027-0.103 0-0.023 0.008-0.040 0.027-0.084z"></path>
</symbol>
<symbol id="icon-myspace" viewBox="0 0 32 32">
<path d="M26.404 16.365c2.811 0 5.091-2.271 5.091-5.072s-2.28-5.060-5.091-5.060c-2.812 0-5.091 2.28-5.091 5.080 0 2.801 2.279 5.081 5.091 5.081zM14.933 17.305c2.529 0 4.581-2.044 4.581-4.565s-2.051-4.567-4.581-4.567-4.581 2.061-4.581 4.581c0 2.521 2.047 4.579 4.581 4.579zM4.533 18.152c2.28 0 4.124-1.84 4.124-4.108 0-2.272-1.86-4.112-4.14-4.112-2.276 0-4.117 1.84-4.117 4.12 0 2.267 1.849 4.104 4.127 4.104zM4.533 19.092c-2.613 0-4.533 2.289-4.533 4.66v1.595c0 0.227 0.184 0.413 0.413 0.413h8.24c0.228 0 0.412-0.187 0.412-0.413v-1.595c0-2.372-1.916-4.667-4.531-4.667zM14.933 18.345c-2.905 0-5.040 2.553-5.040 5.188v1.775c0 0.251 0.208 0.459 0.46 0.459h9.161c0.251 0 0.456-0.207 0.456-0.459v-1.775c0-2.635-2.131-5.188-5.037-5.188zM26.404 17.523c-3.229 0-5.596 2.835-5.596 5.764v1.969c0 0.28 0.229 0.508 0.509 0.508h10.173c0.28 0 0.511-0.228 0.511-0.508v-1.969c-0.001-2.929-2.368-5.764-5.597-5.764z"></path>
</symbol>
<symbol id="icon-amazon1" viewBox="0 0 32 32">
<path d="M28.925 27.663c-3.506 2.587-8.581 3.962-12.956 3.962-6.131 0-11.65-2.262-15.825-6.038-0.325-0.294-0.038-0.7 0.356-0.469 4.506 2.625 10.081 4.2 15.838 4.2 3.881 0 8.15-0.806 12.081-2.475 0.587-0.25 1.087 0.394 0.506 0.819z"></path>
<path d="M30.381 26c-0.45-0.575-2.962-0.275-4.094-0.137-0.344 0.038-0.394-0.256-0.087-0.475 2.006-1.406 5.294-1 5.675-0.531 0.387 0.475-0.1 3.769-1.981 5.344-0.288 0.244-0.563 0.113-0.438-0.206 0.431-1.056 1.375-3.419 0.925-3.994z"></path>
<path d="M22.106 23.675l0.006 0.006c0.775-0.681 2.169-1.9 2.956-2.556 0.313-0.25 0.256-0.669 0.012-1.019-0.706-0.975-1.456-1.769-1.456-3.569v-6c0-2.544 0.175-4.875-1.694-6.625-1.475-1.413-3.925-1.913-5.8-1.913-3.662 0-7.75 1.369-8.606 5.894-0.094 0.481 0.263 0.738 0.575 0.806l3.731 0.406c0.35-0.019 0.6-0.363 0.669-0.713 0.319-1.556 1.625-2.313 3.094-2.313 0.794 0 1.694 0.287 2.163 1 0.538 0.794 0.469 1.875 0.469 2.794v0.5c-2.231 0.25-5.15 0.412-7.238 1.331-2.412 1.044-4.106 3.169-4.106 6.294 0 4 2.519 6 5.763 6 2.738 0 4.231-0.644 6.344-2.806 0.7 1.012 0.925 1.506 2.206 2.569 0.294 0.156 0.656 0.144 0.913-0.087zM18.225 14.287c0 1.5 0.038 2.75-0.719 4.081-0.613 1.087-1.581 1.75-2.662 1.75-1.475 0-2.338-1.125-2.338-2.788 0-3.281 2.944-3.875 5.725-3.875v0.831z"></path>
</symbol>
<symbol id="icon-tv" viewBox="0 0 32 32">
<path d="M30.662 9.003c-2.775-0.399-5.731-0.688-8.815-0.851l5.153-5.153-2-2-7.017 7.017c-0.656-0.011-1.317-0.017-1.983-0.017v0l-8-8-2 2 6.069 6.069c-3.779 0.133-7.386 0.454-10.731 0.935-0.86 3.366-1.338 7.086-1.338 10.997s0.477 7.63 1.338 10.997c4.489 0.645 9.448 1.003 14.662 1.003s10.173-0.358 14.662-1.003c0.86-3.366 1.338-7.086 1.338-10.997s-0.477-7.63-1.338-10.997zM26.997 27.331c-3.367 0.43-7.086 0.669-10.997 0.669s-7.63-0.239-10.997-0.669c-0.645-2.244-1.003-4.724-1.003-7.331s0.358-5.087 1.003-7.331c3.366-0.43 7.086-0.669 10.997-0.669s7.63 0.239 10.996 0.669c0.645 2.244 1.004 4.724 1.004 7.331s-0.358 5.087-1.003 7.331z"></path>
</symbol>
<symbol id="icon-arrow-right" viewBox="0 0 32 32">
<path d="M19.414 27.414l10-10c0.781-0.781 0.781-2.047 0-2.828l-10-10c-0.781-0.781-2.047-0.781-2.828 0s-0.781 2.047 0 2.828l6.586 6.586h-19.172c-1.105 0-2 0.895-2 2s0.895 2 2 2h19.172l-6.586 6.586c-0.39 0.39-0.586 0.902-0.586 1.414s0.195 1.024 0.586 1.414c0.781 0.781 2.047 0.781 2.828 0z"></path>
</symbol>
<symbol id="icon-arrow-left" viewBox="0 0 32 32">
<path d="M12.586 27.414l-10-10c-0.781-0.781-0.781-2.047 0-2.828l10-10c0.781-0.781 2.047-0.781 2.828 0s0.781 2.047 0 2.828l-6.586 6.586h19.172c1.105 0 2 0.895 2 2s-0.895 2-2 2h-19.172l6.586 6.586c0.39 0.39 0.586 0.902 0.586 1.414s-0.195 1.024-0.586 1.414c-0.781 0.781-2.047 0.781-2.828 0z"></path>
</symbol>
<symbol id="icon-circle-down" viewBox="0 0 32 32">
<path d="M32 16c0-8.837-7.163-16-16-16s-16 7.163-16 16 7.163 16 16 16 16-7.163 16-16zM3 16c0-7.18 5.82-13 13-13s13 5.82 13 13-5.82 13-13 13-13-5.82-13-13z"></path>
<path d="M9.914 11.086l-2.829 2.829 8.914 8.914 8.914-8.914-2.828-2.828-6.086 6.086z"></path>
</symbol>
<symbol id="icon-circle-up" viewBox="0 0 32 32">
<path d="M0 16c0 8.837 7.163 16 16 16s16-7.163 16-16-7.163-16-16-16-16 7.163-16 16zM29 16c0 7.18-5.82 13-13 13s-13-5.82-13-13 5.82-13 13-13 13 5.82 13 13z"></path>
<path d="M22.086 20.914l2.829-2.829-8.914-8.914-8.914 8.914 2.828 2.828 6.086-6.086z"></path>
</symbol>
<symbol id="icon-flickr" viewBox="0 0 32 32">
<path d="M29 0h-26c-1.65 0-3 1.35-3 3v26c0 1.65 1.35 3 3 3h26c1.65 0 3-1.35 3-3v-26c0-1.65-1.35-3-3-3zM9 21c-2.763 0-5-2.238-5-5s2.237-5 5-5 5 2.238 5 5-2.238 5-5 5zM23 21c-2.762 0-5-2.238-5-5s2.238-5 5-5c2.762 0 5 2.238 5 5s-2.238 5-5 5z"></path>
</symbol>
<symbol id="icon-youtube" viewBox="0 0 32 32">
<path d="M31.681 9.6c0 0-0.313-2.206-1.275-3.175-1.219-1.275-2.581-1.281-3.206-1.356-4.475-0.325-11.194-0.325-11.194-0.325h-0.012c0 0-6.719 0-11.194 0.325-0.625 0.075-1.987 0.081-3.206 1.356-0.963 0.969-1.269 3.175-1.269 3.175s-0.319 2.588-0.319 5.181v2.425c0 2.587 0.319 5.181 0.319 5.181s0.313 2.206 1.269 3.175c1.219 1.275 2.819 1.231 3.531 1.369 2.563 0.244 10.881 0.319 10.881 0.319s6.725-0.012 11.2-0.331c0.625-0.075 1.988-0.081 3.206-1.356 0.962-0.969 1.275-3.175 1.275-3.175s0.319-2.587 0.319-5.181v-2.425c-0.006-2.588-0.325-5.181-0.325-5.181zM12.694 20.15v-8.994l8.644 4.513-8.644 4.481z"></path>
</symbol>
<symbol id="icon-facebook1" viewBox="0 0 32 32">
<path d="M19 6h5v-6h-5c-3.86 0-7 3.14-7 7v3h-4v6h4v16h6v-16h5l1-6h-6v-3c0-0.542 0.458-1 1-1z"></path>
</symbol>
<symbol id="icon-circle-full" viewBox="0 0 32 32">
<path d="M16 32c-8.836 0-16-7.164-16-16s7.164-16 16-16 16 7.164 16 16-7.164 16-16 16zM16 4c-6.627 0-12 5.373-12 12s5.373 12 12 12 12-5.373 12-12-5.373-12-12-12zM16 24c-4.418 0-8-3.582-8-8s3.582-8 8-8 8 3.582 8 8-3.582 8-8 8z"></path>
</symbol>
<symbol id="icon-heart" viewBox="0 0 32 32">
<path d="M23 2c-2.404 0-4.331 0.863-6.030 2.563-0.001 0.001-0.002 0.002-0.003 0.003h-0.001l-0.966 1.217-0.966-1.143c-0.001-0.001-0.002-0.002-0.003-0.003h-0.001c-1.7-1.701-3.626-2.637-6.030-2.637s-4.664 0.936-6.364 2.636c-1.699 1.7-2.636 3.96-2.636 6.364 0 2.402 0.935 4.662 2.633 6.361l11.947 12.047c0.375 0.379 0.887 0.592 1.42 0.592s1.045-0.213 1.42-0.592l11.946-12.047c1.698-1.699 2.634-3.958 2.634-6.361s-0.937-4.664-2.636-6.364c-1.7-1.7-3.96-2.636-6.364-2.636v0z"></path>
</symbol>
<symbol id="icon-target" viewBox="0 0 32 32">
<path d="M16 8c-4.418 0-8 3.582-8 8s3.582 8 8 8 8-3.582 8-8-3.582-8-8-8zM16 22c-3.313 0-6-2.687-6-6s2.687-6 6-6 6 2.687 6 6-2.687 6-6 6zM16 0c-8.837 0-16 7.163-16 16s7.163 16 16 16 16-7.163 16-16-7.163-16-16-16zM16 28c-6.627 0-12-5.373-12-12s5.373-12 12-12 12 5.373 12 12-5.373 12-12 12zM16 13c-1.657 0-3 1.343-3 3s1.343 3 3 3 3-1.343 3-3-1.343-3-3-3z"></path>
</symbol>
<symbol id="icon-triangle" viewBox="0 0 32 32">
<path d="M15.373 10.384c0.054-0.091 0.136-0.178 0.246-0.244 0.174-0.105 0.373-0.131 0.557-0.085s0.349 0.159 0.452 0.33l6.235 10.408c0.052 0.088 0.088 0.197 0.094 0.32-0.011 0.271-0.088 0.435-0.208 0.559-0.133 0.135-0.314 0.219-0.51 0.222l-12.473-0.001c-0.112-0.001-0.236-0.030-0.354-0.099-0.176-0.102-0.294-0.264-0.343-0.447s-0.028-0.382 0.068-0.549zM14.109 9.627l-6.237 10.413c-0.311 0.538-0.373 1.141-0.227 1.686s0.501 1.037 1.030 1.342c0.342 0.197 0.719 0.295 1.086 0.296h12.477c0.618-0.007 1.169-0.261 1.563-0.664s0.636-0.96 0.63-1.569c-0.004-0.395-0.113-0.769-0.299-1.085l-6.24-10.418c-0.318-0.525-0.817-0.87-1.365-1.004s-1.15-0.060-1.671 0.257c-0.316 0.191-0.571 0.453-0.745 0.747z"></path>
</symbol>
<symbol id="icon-magnifying-glass" viewBox="0 0 32 32">
<path d="M28.072 24.747l-6.046-6.046c0.912-1.496 1.437-3.256 1.437-5.136 0-5.467-4.738-10.203-10.205-10.203-5.467-0.002-9.898 4.43-9.898 9.898 0 5.466 4.738 10.203 10.203 10.203 1.819 0 3.52-0.494 4.984-1.35l6.078 6.082c0.595 0.594 1.56 0.594 2.154 0l1.509-1.509c0.594-0.594 0.378-1.344-0.216-1.938zM6.406 13.259c0-3.786 3.067-6.853 6.851-6.853 3.786 0 7.158 3.371 7.158 7.158 0 3.784-3.069 6.853-6.853 6.853-3.786-0.002-7.157-3.374-7.157-7.158z"></path>
</symbol>
<symbol id="icon-th-menu-outline" viewBox="0 0 20 20">
<path d="M15.833 15c0.458 0 0.833 0.375 0.833 0.833s-0.375 0.833-0.833 0.833h-11.667c-0.458 0-0.833-0.375-0.833-0.833s0.375-0.833 0.833-0.833h11.667zM15.833 13.333h-11.667c-1.378 0-2.5 1.122-2.5 2.5s1.122 2.5 2.5 2.5h11.667c1.378 0 2.5-1.122 2.5-2.5s-1.122-2.5-2.5-2.5z"></path>
<path d="M15.833 9.167c0.458 0 0.833 0.375 0.833 0.833s-0.375 0.833-0.833 0.833h-11.667c-0.458 0-0.833-0.375-0.833-0.833s0.375-0.833 0.833-0.833h11.667zM15.833 7.5h-11.667c-1.378 0-2.5 1.122-2.5 2.5s1.122 2.5 2.5 2.5h11.667c1.378 0 2.5-1.122 2.5-2.5s-1.122-2.5-2.5-2.5z"></path>
<path d="M15.833 3.333c0.458 0 0.833 0.375 0.833 0.833s-0.375 0.833-0.833 0.833h-11.667c-0.458 0-0.833-0.375-0.833-0.833s0.375-0.833 0.833-0.833h11.667zM15.833 1.667h-11.667c-1.378 0-2.5 1.122-2.5 2.5s1.122 2.5 2.5 2.5h11.667c1.378 0 2.5-1.122 2.5-2.5s-1.122-2.5-2.5-2.5z"></path>
</symbol>
<symbol id="icon-people_alt" viewBox="0 0 20 20">
<path d="M7.5 10.82q1.25 0 2.734 0.352t2.715 1.172 1.23 1.836v2.5h-13.359v-2.5q0-1.016 1.23-1.836t2.715-1.172 2.734-0.352zM12.5 10q-0.508 0-1.094-0.195 1.094-1.289 1.094-3.125 0-0.742-0.313-1.68t-0.781-1.484q0.586-0.195 1.094-0.195 1.367 0 2.344 0.996t0.977 2.363-0.977 2.344-2.344 0.977zM4.18 6.68q0-1.367 0.977-2.363t2.344-0.996 2.344 0.996 0.977 2.363-0.977 2.344-2.344 0.977-2.344-0.977-0.977-2.344zM13.906 10.938q2.070 0.313 3.672 1.152t1.602 2.090v2.5h-3.359v-2.5q0-1.914-1.914-3.242z"></path>
</symbol>
<symbol id="icon-group" viewBox="0 0 20 20">
<path d="M13.32 10.82q1.094 0 2.383 0.313t2.383 1.016 1.094 1.602v2.070h-5v-2.070q0-1.719-1.641-2.891 0.273-0.039 0.781-0.039zM6.68 10.82q1.094 0 2.383 0.313t2.363 1.016 1.074 1.602v2.070h-11.68v-2.070q0-0.898 1.094-1.602t2.383-1.016 2.383-0.313zM6.68 9.18q-1.016 0-1.758-0.742t-0.742-1.758 0.742-1.758 1.758-0.742 1.738 0.742 0.723 1.758-0.723 1.758-1.738 0.742zM13.32 9.18q-1.016 0-1.758-0.742t-0.742-1.758 0.742-1.758 1.758-0.742 1.758 0.742 0.742 1.758-0.742 1.758-1.758 0.742z"></path>
</symbol>
<symbol id="icon-add_shopping_cart" viewBox="0 0 20 20">
<path d="M5.977 12.305q0 0.195 0.195 0.195h9.648v1.68h-10q-0.664 0-1.152-0.508t-0.488-1.172q0-0.391 0.195-0.781l1.133-2.070-3.008-6.328h-1.68v-1.641h2.734q0.781 1.641 1.563 3.32 0.195 0.352 0.898 1.855t1.094 2.324h5.859q2.93-5.313 3.203-5.859l1.445 0.82-3.203 5.82q-0.469 0.859-1.445 0.859h-6.211l-0.742 1.367zM14.18 15q0.664 0 1.152 0.508t0.488 1.172-0.488 1.152-1.152 0.488-1.172-0.488-0.508-1.152 0.508-1.172 1.172-0.508zM5.82 15q0.664 0 1.172 0.508t0.508 1.172-0.508 1.152-1.172 0.488-1.152-0.488-0.488-1.152 0.488-1.172 1.152-0.508zM9.18 7.5v-2.5h-2.5v-1.68h2.5v-2.5h1.641v2.5h2.5v1.68h-2.5v2.5h-1.641z"></path>
</symbol>
<symbol id="icon-add_circle" viewBox="0 0 20 20">
<path d="M14.18 10.82v-1.641h-3.359v-3.359h-1.641v3.359h-3.359v1.641h3.359v3.359h1.641v-3.359h3.359zM10 1.68q3.438 0 5.879 2.441t2.441 5.879-2.441 5.879-5.879 2.441-5.879-2.441-2.441-5.879 2.441-5.879 5.879-2.441z"></path>
</symbol>
<symbol id="icon-menu" viewBox="0 0 20 20">
<path d="M2.5 5h15v1.68h-15v-1.68zM2.5 10.82v-1.641h15v1.641h-15zM2.5 15v-1.68h15v1.68h-15z"></path>
</symbol>
<symbol id="icon-phone" viewBox="0 0 20 20">
<path d="M19.167 14.1c0.013-0.595-0.197-1.17-0.561-1.619-0.383-0.472-0.941-0.806-1.604-0.9-0.667-0.082-1.412-0.262-2.155-0.538-0.361-0.133-0.744-0.182-1.12-0.145-0.553 0.053-1.089 0.291-1.516 0.712l-0.6 0.6c-1.475-0.931-2.8-2.223-3.819-3.824l0.605-0.605c0.268-0.275 0.469-0.605 0.589-0.963 0.177-0.527 0.178-1.113-0.032-1.676-0.241-0.628-0.432-1.37-0.537-2.163-0.087-0.595-0.38-1.121-0.803-1.503-0.449-0.405-1.047-0.649-1.689-0.642h-2.497c-0.073 0-0.152 0.003-0.228 0.010-0.687 0.063-1.285 0.398-1.694 0.888s-0.632 1.139-0.569 1.832c0.25 2.563 1.138 5.202 2.68 7.585 1.252 2.011 3.040 3.853 5.248 5.255 2.14 1.414 4.737 2.385 7.572 2.692 0.077 0.008 0.159 0.011 0.24 0.011 0.69-0.003 1.315-0.286 1.765-0.739s0.728-1.081 0.725-1.768zM17.5 14.1v2.5c0.001 0.233-0.091 0.442-0.242 0.593s-0.358 0.246-0.588 0.247c-2.624-0.28-4.968-1.159-6.886-2.427-2.023-1.286-3.632-2.948-4.752-4.745-1.414-2.183-2.212-4.567-2.437-6.865-0.020-0.223 0.053-0.438 0.191-0.603s0.336-0.275 0.565-0.296l2.573-0.004c0.226-0.002 0.423 0.078 0.572 0.213 0.142 0.128 0.24 0.305 0.269 0.507 0.118 0.893 0.34 1.764 0.631 2.521 0.067 0.18 0.067 0.373 0.008 0.548-0.041 0.121-0.109 0.234-0.202 0.329l-1.052 1.051c-0.27 0.27-0.316 0.678-0.135 1.001 1.32 2.321 3.199 4.131 5.317 5.315 0.331 0.185 0.735 0.12 0.996-0.138l1.058-1.058c0.138-0.137 0.314-0.214 0.498-0.232 0.127-0.012 0.258 0.004 0.382 0.050 0.852 0.318 1.725 0.53 2.528 0.628 0.201 0.028 0.385 0.138 0.512 0.296 0.123 0.151 0.193 0.343 0.188 0.568z"></path>
</symbol>
<symbol id="icon-plus-circle" viewBox="0 0 20 20">
<path d="M19.167 10c0-2.531-1.027-4.824-2.685-6.482s-3.951-2.685-6.482-2.685-4.824 1.027-6.482 2.685-2.685 3.951-2.685 6.482 1.027 4.824 2.685 6.482 3.951 2.685 6.482 2.685 4.824-1.027 6.482-2.685 2.685-3.951 2.685-6.482zM17.5 10c0 2.072-0.838 3.945-2.197 5.303s-3.232 2.197-5.303 2.197-3.945-0.838-5.303-2.197-2.197-3.232-2.197-5.303 0.838-3.945 2.197-5.303 3.232-2.197 5.303-2.197 3.945 0.838 5.303 2.197 2.197 3.232 2.197 5.303zM6.667 10.833h2.5v2.5c0 0.46 0.373 0.833 0.833 0.833s0.833-0.373 0.833-0.833v-2.5h2.5c0.46 0 0.833-0.373 0.833-0.833s-0.373-0.833-0.833-0.833h-2.5v-2.5c0-0.46-0.373-0.833-0.833-0.833s-0.833 0.373-0.833 0.833v2.5h-2.5c-0.46 0-0.833 0.373-0.833 0.833s0.373 0.833 0.833 0.833z"></path>
</symbol>
<symbol id="icon-comments-o" viewBox="0 0 20 20">
<path d="M7.857 4.286c-3.482 0-6.429 1.964-6.429 4.286 0 1.228 0.826 2.411 2.254 3.237l1.083 0.625-0.391 0.938c0.234-0.134 0.469-0.279 0.692-0.435l0.491-0.346 0.592 0.112c0.558 0.1 1.127 0.156 1.708 0.156 3.482 0 6.429-1.964 6.429-4.286s-2.946-4.286-6.429-4.286zM7.857 2.857c4.342 0 7.857 2.556 7.857 5.714s-3.516 5.714-7.857 5.714c-0.681 0-1.339-0.067-1.964-0.179-0.926 0.658-1.975 1.138-3.103 1.429-0.301 0.078-0.625 0.134-0.96 0.179h-0.033c-0.167 0-0.324-0.134-0.357-0.324v0c-0.045-0.212 0.1-0.346 0.223-0.491 0.435-0.491 0.926-0.926 1.306-1.853-1.808-1.049-2.969-2.667-2.969-4.475 0-3.158 3.516-5.714 7.857-5.714zM17.031 15.904c0.379 0.926 0.871 1.362 1.306 1.853 0.123 0.145 0.268 0.279 0.223 0.491v0c-0.045 0.201-0.212 0.346-0.391 0.324-0.335-0.045-0.658-0.1-0.96-0.179-1.127-0.29-2.176-0.77-3.103-1.429-0.625 0.112-1.283 0.179-1.964 0.179-2.020 0-3.873-0.558-5.268-1.473 0.324 0.022 0.658 0.045 0.982 0.045 2.4 0 4.665-0.692 6.395-1.942 1.864-1.362 2.891-3.203 2.891-5.201 0-0.58-0.089-1.15-0.257-1.696 1.886 1.038 3.114 2.69 3.114 4.554 0 1.819-1.161 3.426-2.969 4.475z"></path>
</symbol>
<symbol id="icon-podcast" viewBox="0 0 17 20">
<path d="M11.094 13.304c0 0.737-0.078 1.473-0.19 2.199-0.167 1.161-0.335 2.355-0.614 3.493-0.201 0.815-0.96 1.004-1.696 1.004s-1.496-0.19-1.696-1.004c-0.279-1.138-0.446-2.333-0.614-3.493-0.112-0.725-0.19-1.462-0.19-2.199 0-1.507 1.217-1.875 2.5-1.875s2.5 0.368 2.5 1.875zM17.143 8.571c0 3.616-2.232 6.708-5.402 7.969-0.123 0.045-0.257-0.067-0.234-0.201 0.033-0.234 0.067-0.48 0.112-0.737 0.022-0.179 0.045-0.357 0.067-0.525 0.011-0.067 0.045-0.112 0.1-0.134 2.321-1.183 3.929-3.594 3.929-6.373 0-4.074-3.415-7.355-7.533-7.132-3.772 0.201-6.775 3.415-6.752 7.188 0.022 2.779 1.641 5.179 3.973 6.339 0.056 0.022 0.089 0.078 0.1 0.134 0.022 0.156 0.045 0.324 0.067 0.502 0.045 0.268 0.078 0.513 0.123 0.759 0.022 0.134-0.123 0.246-0.246 0.19-3.315-1.295-5.625-4.598-5.435-8.404 0.212-4.319 3.694-7.857 8.013-8.125 4.978-0.313 9.118 3.638 9.118 8.549zM11.094 8.214c0 1.384-1.116 2.5-2.5 2.5s-2.5-1.116-2.5-2.5 1.116-2.5 2.5-2.5 2.5 1.116 2.5 2.5zM14.308 8.571c0 1.842-0.882 3.493-2.232 4.531-0.112 0.089-0.268 0.011-0.29-0.134-0.033-0.313-0.123-0.681-0.324-1.027-0.045-0.067-0.033-0.156 0.033-0.223 0.848-0.781 1.384-1.897 1.384-3.147 0-2.522-2.199-4.542-4.777-4.263-1.975 0.223-3.583 1.853-3.772 3.839-0.145 1.406 0.413 2.701 1.362 3.571 0.067 0.067 0.078 0.156 0.033 0.223-0.201 0.346-0.29 0.714-0.324 1.038-0.022 0.134-0.179 0.212-0.29 0.123-1.384-1.071-2.266-2.757-2.232-4.654 0.067-2.969 2.478-5.446 5.435-5.58 3.281-0.156 5.993 2.455 5.993 5.703z"></path>
</symbol>
<symbol id="icon-facebook11" viewBox="0 0 12 20">
<path d="M10.703 0.134v2.946h-1.752c-1.373 0-1.629 0.658-1.629 1.607v2.109h3.27l-0.435 3.304h-2.835v8.471h-3.415v-8.471h-2.846v-3.304h2.846v-2.433c0-2.824 1.73-4.364 4.252-4.364 1.205 0 2.243 0.089 2.545 0.134z"></path>
</symbol>
<symbol id="icon-snowflake-o" viewBox="0 0 19 20">
<path d="M17.478 12.467l-1.864 0.368 2.076 1.194c0.335 0.19 0.458 0.636 0.257 0.971s-0.636 0.458-0.971 0.257l-2.076-1.183 0.614 1.786c0.313 0.893-1.049 1.35-1.35 0.469l-1.138-3.348-3.025-1.741v3.493l2.321 2.656c0.625 0.703-0.458 1.652-1.071 0.938l-1.25-1.429v2.388c0 0.391-0.324 0.714-0.714 0.714s-0.714-0.324-0.714-0.714v-2.388l-1.25 1.429c-0.614 0.714-1.696-0.234-1.071-0.938l2.321-2.656v-3.493l-3.025 1.741-1.138 3.348c-0.301 0.882-1.663 0.424-1.35-0.469l0.614-1.786-2.076 1.183c-0.335 0.201-0.77 0.078-0.971-0.257s-0.078-0.781 0.257-0.971l2.076-1.194-1.864-0.368c-0.926-0.19-0.647-1.585 0.279-1.406l3.46 0.692 3.025-1.752-3.025-1.752-3.46 0.692c-0.045 0.011-0.1 0.011-0.145 0.011-0.848 0-0.971-1.25-0.134-1.417l1.864-0.368-2.076-1.194c-0.335-0.19-0.458-0.636-0.257-0.971 0.201-0.346 0.636-0.458 0.971-0.257l2.076 1.183-0.614-1.786c-0.313-0.893 1.049-1.35 1.35-0.469l1.138 3.348 3.025 1.741v-3.493l-2.321-2.656c-0.625-0.703 0.458-1.652 1.071-0.938l1.25 1.429v-2.388c0-0.391 0.324-0.714 0.714-0.714s0.714 0.324 0.714 0.714v2.388l1.25-1.429c0.614-0.714 1.696 0.234 1.071 0.938l-2.321 2.656v3.493l3.025-1.741 1.138-3.348c0.301-0.882 1.663-0.424 1.35 0.469l-0.614 1.786 2.076-1.183c0.335-0.201 0.77-0.078 0.971 0.257s0.078 0.781-0.257 0.971l-2.076 1.194 1.864 0.368c0.837 0.167 0.714 1.417-0.134 1.417-0.045 0-0.1 0-0.145-0.011l-3.46-0.692-3.025 1.752 3.025 1.752 3.46-0.692c0.926-0.179 1.205 1.217 0.279 1.406z"></path>
</symbol>
<symbol id="icon-trophy1" viewBox="0 0 20 20">
<path d="M15 9c1.657 0 3-1.343 3-3v0h2c0 0 0 0.001 0 0.001 0 2.761-2.239 5-5 5-0.035 0-0.070-0-0.105-0.001l0.005 0c-0.411 1.966-1.934 3.489-3.867 3.894l-0.033 0.006v2.1l5 2v1h-12v-1l5-2v-2.1c-1.966-0.411-3.489-1.934-3.894-3.867l-0.006-0.033h-0.1c-2.761 0-5-2.239-5-5v0h2c0 1.657 1.343 3 3 3v0-5h-3v2h-2v-4h5v-2h10v2h5v4h-2v-2h-3v5z"></path>
</symbol>
<symbol id="icon-arrow-thin-right" viewBox="0 0 20 20">
<path d="M16.172 9l-6.071-6.071 1.414-1.414 8.485 8.485-8.485 8.485-1.414-1.414 6.071-6.071h-16.172v-2z"></path>
</symbol>
<symbol id="icon-arrow-thin-left" viewBox="0 0 20 20">
<path d="M3.828 9l6.071-6.071-1.414-1.414-8.485 8.485 8.485 8.485 1.414-1.414-6.071-6.071h16.172v-2h-16.172z"></path>
</symbol>
<symbol id="icon-arrow-outline-right" viewBox="0 0 20 20">
<path d="M20 10c0 5.523-4.477 10-10 10s-10-4.477-10-10v0c0-5.523 4.477-10 10-10s10 4.477 10 10v0zM18 10c0-4.418-3.582-8-8-8s-8 3.582-8 8v0c0 4.418 3.582 8 8 8s8-3.582 8-8v0zM10 12h-5v-4h5v-3l5 5-5 5v-3z"></path>
</symbol>
<symbol id="icon-arrow-outline-left" viewBox="0 0 20 20">
<path d="M0 10c0-5.523 4.477-10 10-10s10 4.477 10 10v0c0 5.523-4.477 10-10 10s-10-4.477-10-10v0zM2 10c0 4.418 3.582 8 8 8s8-3.582 8-8v0c0-4.418-3.582-8-8-8s-8 3.582-8 8v0zM10 8h5v4h-5v3l-5-5 5-5v3z"></path>
</symbol>
<symbol id="icon-add-outline" viewBox="0 0 20 20">
<path d="M11 9h4v2h-4v4h-2v-4h-4v-2h4v-4h2v4zM10 20c-5.523 0-10-4.477-10-10s4.477-10 10-10v0c5.523 0 10 4.477 10 10s-4.477 10-10 10v0zM10 18c4.418 0 8-3.582 8-8s-3.582-8-8-8v0c-4.418 0-8 3.582-8 8s3.582 8 8 8v0z"></path>
</symbol>
<symbol id="icon-arrow-right1" viewBox="0 0 20 20">
<path d="M16.172 9l-6.071-6.071 1.414-1.414 8.485 8.485-8.485 8.485-1.414-1.414 6.071-6.071h-16.172v-2z"></path>
</symbol>
<symbol id="icon-arrow-left1" viewBox="0 0 20 20">
<path d="M3.828 9l6.071-6.071-1.414-1.414-8.485 8.485 8.485 8.485 1.414-1.414-6.071-6.071h16.172v-2h-16.172z"></path>
</symbol>
<symbol id="icon-chevron-down" viewBox="0 0 20 20">
<path d="M4.516 7.548c0.436-0.446 1.043-0.481 1.576 0l3.908 3.747 3.908-3.747c0.533-0.481 1.141-0.446 1.574 0 0.436 0.445 0.408 1.197 0 1.615-0.406 0.418-4.695 4.502-4.695 4.502-0.217 0.223-0.502 0.335-0.787 0.335s-0.57-0.112-0.789-0.335c0 0-4.287-4.084-4.695-4.502s-0.436-1.17 0-1.615z"></path>
</symbol>
<symbol id="icon-chevron-small-left" viewBox="0 0 20 20">
<path d="M12.141 13.418c0.268 0.271 0.268 0.709 0 0.978s-0.701 0.272-0.969 0l-3.83-3.908c-0.268-0.27-0.268-0.707 0-0.979l3.83-3.908c0.267-0.27 0.701-0.27 0.969 0s0.268 0.709 0 0.978l-3.141 3.421 3.141 3.418z"></path>
</symbol>
<symbol id="icon-chevron-small-right" viewBox="0 0 20 20">
<path d="M11 10l-3.141-3.42c-0.268-0.27-0.268-0.707 0-0.978 0.268-0.27 0.701-0.27 0.969 0l3.83 3.908c0.268 0.271 0.268 0.709 0 0.979l-3.83 3.908c-0.267 0.272-0.701 0.27-0.969 0s-0.268-0.707 0-0.978l3.141-3.419z"></path>
</symbol>
<symbol id="icon-chevron-thin-left" viewBox="0 0 20 20">
<path d="M13.891 17.418c0.268 0.272 0.268 0.709 0 0.979s-0.701 0.271-0.969 0l-7.83-7.908c-0.268-0.27-0.268-0.707 0-0.979l7.83-7.908c0.268-0.27 0.701-0.27 0.969 0s0.268 0.709 0 0.979l-7.141 7.419 7.141 7.418z"></path>
</symbol>
<symbol id="icon-chevron-thin-right" viewBox="0 0 20 20">
<path d="M13.25 10l-7.141-7.42c-0.268-0.27-0.268-0.707 0-0.979 0.268-0.27 0.701-0.27 0.969 0l7.83 7.908c0.268 0.271 0.268 0.709 0 0.979l-7.83 7.908c-0.268 0.271-0.701 0.27-0.969 0s-0.268-0.707 0-0.979l7.141-7.417z"></path>
</symbol>
<symbol id="icon-chevron-up" viewBox="0 0 20 20">
<path d="M15.484 12.452c-0.436 0.446-1.043 0.481-1.576 0l-3.908-3.747-3.908 3.747c-0.533 0.481-1.141 0.446-1.574 0-0.436-0.445-0.408-1.197 0-1.615 0.406-0.418 4.695-4.502 4.695-4.502 0.217-0.223 0.502-0.335 0.787-0.335s0.57 0.112 0.789 0.335c0 0 4.287 4.084 4.695 4.502s0.436 1.17 0 1.615z"></path>
</symbol>
<symbol id="icon-open-book" viewBox="0 0 20 20">
<path d="M10.595 5.196l0.446 1.371c0.369-0.316 0.835-0.599 1.441-0.795 0.59-0.192 1.111-0.3 1.582-0.362l-0.43-1.323c-0.476 0.069-1.001 0.18-1.58 0.368s-1.055 0.45-1.459 0.741zM11.522 8.051l0.446 1.371c0.369-0.316 0.835-0.599 1.441-0.795 0.59-0.192 1.111-0.3 1.582-0.362l-0.43-1.323c-0.476 0.069-1.001 0.18-1.58 0.368-0.578 0.187-1.054 0.449-1.459 0.741zM12.45 10.905l0.446 1.371c0.369-0.316 0.835-0.599 1.441-0.795 0.59-0.192 1.111-0.3 1.582-0.362l-0.43-1.323c-0.476 0.069-1.001 0.18-1.58 0.368-0.579 0.187-1.055 0.45-1.459 0.741zM5.388 13.077l0.43 1.323c0.417-0.226 0.902-0.445 1.492-0.636 0.606-0.197 1.149-0.242 1.633-0.203l-0.446-1.371c-0.499 0.002-1.038 0.070-1.615 0.257-0.579 0.188-1.069 0.406-1.494 0.63zM3.533 7.368l0.43 1.323c0.417-0.226 0.902-0.444 1.492-0.636 0.606-0.197 1.149-0.242 1.633-0.203l-0.445-1.372c-0.499 0.003-1.038 0.070-1.616 0.258-0.579 0.188-1.069 0.406-1.494 0.63zM4.46 10.223l0.43 1.323c0.417-0.226 0.902-0.445 1.492-0.636 0.606-0.197 1.149-0.242 1.633-0.203l-0.445-1.372c-0.499 0.002-1.038 0.070-1.615 0.257-0.579 0.188-1.070 0.407-1.495 0.631zM11.064 1.41c-1.723 0.56-2.623 1.752-3.053 2.559-0.822-0.4-2.25-0.835-3.973-0.275-2.523 0.82-3.969 2.627-3.969 2.627l4.095 12.587c0.126 0.387 0.646 0.477 0.878 0.143 0.499-0.719 1.46-1.658 3.257-2.242 1.718-0.558 2.969 0.054 3.655 0.578 0.272 0.208 0.662 0.060 0.762-0.268 0.252-0.827 0.907-2.040 2.61-2.593 1.799-0.585 3.129-0.389 3.956-0.1 0.385 0.134 0.75-0.242 0.625-0.629l-4.088-12.594c0 0-2.232-0.612-4.755 0.207zM10.951 15.256c-0.819-0.244-1.901-0.358-3.141 0.044-1.251 0.406-2.127 0.949-2.699 1.404l-3.245-9.982c0.358-0.358 1.187-1.042 2.662-1.521 1.389-0.451 2.528-0.065 3.279 0.378l3.144 9.677zM17.845 12.567c-0.731-0.032-1.759 0.044-3.010 0.451-1.24 0.403-2.048 1.132-2.567 1.81l-3.144-9.677c0.346-0.8 1.040-1.782 2.43-2.233 1.474-0.479 2.547-0.413 3.047-0.334l3.244 9.983z"></path>
</symbol>
<symbol id="icon-check" viewBox="0 0 20 20">
<path d="M8.294 16.998c-0.435 0-0.847-0.203-1.111-0.553l-3.573-4.721c-0.465-0.613-0.344-1.486 0.27-1.951 0.615-0.467 1.488-0.344 1.953 0.27l2.351 3.104 5.911-9.492c0.407-0.652 1.267-0.852 1.921-0.445s0.854 1.266 0.446 1.92l-6.984 11.21c-0.242 0.391-0.661 0.635-1.12 0.656-0.022 0.002-0.042 0.002-0.064 0.002z"></path>
</symbol>
<symbol id="icon-globe" viewBox="0 0 20 20">
<path d="M10 0.4c-5.295 0-9.601 4.307-9.601 9.6s4.306 9.6 9.601 9.6c5.293 0 9.6-4.307 9.6-9.6s-4.307-9.6-9.6-9.6zM18.188 10c0 1.873-0.636 3.6-1.696 4.98-0.3-0.234-0.619-0.867-0.319-1.523 0.303-0.66 0.382-2.188 0.312-2.783-0.066-0.594-0.375-2.025-1.214-2.039-0.838-0.012-1.413-0.289-1.911-1.283-1.033-2.068 1.939-2.465 0.906-3.609-0.289-0.322-1.783 1.322-2.002-0.869-0.014-0.157 0.135-0.392 0.336-0.636 3.244 1.090 5.588 4.157 5.588 7.762zM8.875 1.893c-0.196 0.382-0.713 0.537-1.027 0.824-0.684 0.619-0.978 0.533-1.346 1.127-0.371 0.594-1.567 1.449-1.567 1.879s0.604 0.936 0.906 0.838c0.302-0.1 1.099-0.094 1.567 0.070 0.469 0.166 3.914 0.332 2.816 3.244-0.348 0.926-1.873 0.77-2.279 2.303-0.061 0.225-0.272 1.186-0.285 1.5-0.025 0.486 0.344 2.318-0.125 2.318-0.471 0-1.738-1.639-1.738-1.936s-0.328-1.338-0.328-2.23c0-0.891-1.518-0.877-1.518-2.062 0-1.068 0.823-1.6 0.638-2.113-0.181-0.51-1.627-0.527-2.23-0.59 1.053-2.731 3.53-4.758 6.516-5.172zM7.424 17.77c0.492-0.26 0.542-0.596 0.988-0.613 0.51-0.023 0.925-0.199 1.5-0.326 0.51-0.111 1.423-0.629 2.226-0.695 0.678-0.055 2.015 0.035 2.375 0.689-1.295 0.861-2.848 1.363-4.514 1.363-0.899 0-1.765-0.149-2.575-0.418z"></path>
</symbol>
<symbol id="icon-image" viewBox="0 0 20 20">
<path d="M19 2h-18c-0.553 0-1 0.447-1 1v14c0 0.552 0.447 1 1 1h18c0.553 0 1-0.448 1-1v-14c0-0.552-0.447-1-1-1zM18 16h-16v-12h16v12zM14.315 10.877l-3.231 1.605-3.77-6.101-3.314 7.619h12l-1.685-3.123zM13.25 9c0.69 0 1.25-0.56 1.25-1.25s-0.56-1.25-1.25-1.25-1.25 0.56-1.25 1.25 0.56 1.25 1.25 1.25z"></path>
</symbol>
<symbol id="icon-light-down" viewBox="0 0 20 20">
<path d="M10 6.797c-1.775 0-3.2 1.426-3.2 3.201 0 1.773 1.425 3.199 3.2 3.199s3.199-1.426 3.199-3.199c0-1.775-1.425-3.201-3.199-3.201zM10 12.047c-1.133 0-2.051-0.916-2.051-2.049s0.918-2.051 2.051-2.051c1.132 0 2.050 0.918 2.050 2.051s-0.919 2.049-2.050 2.049zM15 5c-0.312-0.312-0.883-0.248-1.273 0.142s-0.453 0.959-0.141 1.272 0.882 0.25 1.273-0.141c0.39-0.39 0.453-0.961 0.141-1.273zM5.142 13.729c-0.391 0.39-0.454 0.959-0.142 1.271s0.882 0.25 1.273-0.141c0.391-0.391 0.454-0.961 0.142-1.273s-0.883-0.248-1.273 0.143zM5 5c-0.312 0.312-0.249 0.883 0.141 1.273s0.961 0.453 1.273 0.141 0.249-0.883-0.142-1.273c-0.389-0.389-0.96-0.453-1.272-0.141zM13.727 14.857c0.39 0.391 0.96 0.455 1.273 0.143s0.249-0.883-0.142-1.274c-0.391-0.391-0.96-0.453-1.273-0.141s-0.248 0.882 0.142 1.272zM10 4.998c0.441 0 0.8-0.447 0.8-1s-0.359-0.998-0.8-0.998c-0.442 0-0.801 0.445-0.801 0.998s0.358 1 0.801 1zM10 17c0.441 0 0.8-0.447 0.8-1s-0.358-0.998-0.799-0.998c-0.442 0-0.801 0.445-0.801 0.998s0.357 1 0.8 1zM5 10c0-0.441-0.45-0.8-1.003-0.8s-0.997 0.359-0.997 0.8c0 0.442 0.444 0.8 0.997 0.8s1.003-0.358 1.003-0.8zM17 10c0-0.441-0.448-0.8-1.001-0.8s-0.999 0.359-0.999 0.8c0 0.442 0.446 0.8 0.999 0.8s1.001-0.358 1.001-0.8z"></path>
</symbol>
<symbol id="icon-map11" viewBox="0 0 20 20">
<path d="M19.447 3.718l-6-3c-0.281-0.141-0.613-0.141-0.895 0l-5.63 2.815-5.606-1.869c-0.306-0.102-0.64-0.051-0.901 0.138s-0.415 0.49-0.415 0.811v13.001c0 0.379 0.214 0.725 0.553 0.894l6 3c0.141 0.070 0.294 0.106 0.447 0.106s0.307-0.035 0.447-0.106l5.63-2.814 5.606 1.869c0.305 0.1 0.64 0.049 0.901-0.139s0.415-0.49 0.415-0.81v-13.002c0.001-0.379-0.213-0.725-0.552-0.894zM8 5.231l4-2v11.763l-4 2v-11.763zM2 4l4 1.333v11.661l-4-2v-10.994zM18 16.227l-4-1.334v-11.662l4 2v10.996z"></path>
</symbol>
<symbol id="icon-old-phone" viewBox="0 0 20 20">
<path d="M17.256 12.253c-0.096-0.667-0.611-1.187-1.274-1.342-2.577-0.604-3.223-2.088-3.332-3.734-0.457-0.085-1.27-0.177-2.65-0.177s-2.193 0.092-2.65 0.177c-0.109 1.646-0.755 3.13-3.332 3.734-0.663 0.156-1.178 0.675-1.274 1.342l-0.497 3.442c-0.175 1.212 0.715 2.305 1.953 2.305h11.6c1.237 0 2.128-1.093 1.953-2.305l-0.497-3.442zM10 15.492c-1.395 0-2.526-1.12-2.526-2.5s1.131-2.5 2.526-2.5 2.526 1.12 2.526 2.5-1.132 2.5-2.526 2.5zM19.95 6c-0.024-1.5-3.842-3.999-9.95-4-6.109 0.001-9.927 2.5-9.95 4s0.021 3.452 2.535 3.127c2.941-0.381 2.76-1.408 2.76-2.876 0-1.024 2.392-1.271 4.655-1.271s4.654 0.247 4.655 1.271c0 1.468-0.181 2.495 2.76 2.876 2.513 0.325 2.558-1.627 2.535-3.127z"></path>
</symbol>
<symbol id="icon-shopping-cart" viewBox="0 0 20 20">
<path d="M13 17c0 1.104 0.894 2 2 2 1.104 0 2-0.896 2-2 0-1.106-0.896-2-2-2-1.106 0-2 0.894-2 2zM3 17c0 1.104 0.895 2 2 2 1.103 0 2-0.896 2-2 0-1.106-0.897-2-2-2-1.105 0-2 0.894-2 2zM6.547 12.172l11.068-3.162c0.211-0.061 0.385-0.289 0.385-0.51v-5.5h-14v-1.6c0-0.22-0.181-0.4-0.399-0.4h-3.202c-0.219 0-0.399 0.18-0.399 0.4v1.6h2l1.91 8.957 0.090 0.943v1.649c0 0.219 0.18 0.4 0.4 0.4h13.2c0.22 0 0.4-0.182 0.4-0.4v-1.549h-11.248c-1.15 0-1.174-0.551-0.205-0.828z"></path>
</symbol>
<symbol id="icon-switch" viewBox="0 0 20 20">
<path d="M13 3h-6c-3.866 0-7 3.134-7 7s3.134 7 7 7h6c3.866 0 7-3.134 7-7s-3.134-7-7-7zM13 15c-2.761 0-5-2.239-5-5s2.239-5 5-5 5 2.239 5 5-2.239 5-5 5z"></path>
</symbol>
<symbol id="icon-user" viewBox="0 0 20 20">
<path d="M7.725 2.146c-1.016 0.756-1.289 1.953-1.239 2.59 0.064 0.779 0.222 1.793 0.222 1.793s-0.313 0.17-0.313 0.854c0.109 1.717 0.683 0.976 0.801 1.729 0.284 1.814 0.933 1.491 0.933 2.481 0 1.649-0.68 2.42-2.803 3.334-2.13 0.918-4.326 2.073-4.326 4.073v1h18v-1c0-2-2.197-3.155-4.328-4.072-2.123-0.914-2.801-1.684-2.801-3.334 0-0.99 0.647-0.667 0.932-2.481 0.119-0.753 0.692-0.012 0.803-1.729 0-0.684-0.314-0.854-0.314-0.854s0.158-1.014 0.221-1.793c0.065-0.817-0.398-2.561-2.3-3.096-0.333-0.34-0.558-0.881 0.466-1.424-2.24-0.105-2.761 1.067-3.954 1.929z"></path>
</symbol>
<symbol id="icon-vinyl" viewBox="0 0 20 20">
<path d="M9.999 0.8c-5.081 0-9.199 4.119-9.199 9.201 0 5.080 4.118 9.199 9.199 9.199s9.2-4.119 9.2-9.199c0-5.082-4.119-9.201-9.2-9.201zM10 13.001c-1.657 0-3-1.344-3-3s1.343-3 3-3c1.656 0 3 1.344 3 3s-1.344 3-3 3z"></path>
</symbol>
<symbol id="icon-water" viewBox="0 0 20 20">
<path d="M9.882 9.093c-0.511 4.115-3.121 4.847-3.121 7.708 0 1.766 1.483 3.199 3.239 3.199s3.238-1.434 3.238-3.199c0-2.861-2.61-3.593-3.121-7.708-0.016-0.123-0.219-0.123-0.235 0zM3.883 0.093c-0.511 4.115-3.121 4.846-3.121 7.708 0 1.765 1.482 3.199 3.238 3.199s3.238-1.434 3.238-3.199c0-2.861-2.61-3.593-3.121-7.708-0.015-0.123-0.219-0.123-0.234 0zM15.883 0.093c-0.511 4.115-3.121 4.847-3.121 7.708 0 1.765 1.482 3.199 3.238 3.199s3.238-1.434 3.238-3.199c0-2.861-2.61-3.593-3.121-7.708-0.016-0.123-0.219-0.123-0.234 0z"></path>
</symbol>
<symbol id="icon-soundcloud" viewBox="0 0 20 20">
<path d="M0.672 13.055l0.328-1.401-0.328-1.447c-0.009-0.043-0.092-0.076-0.191-0.076-0.102 0-0.184 0.033-0.191 0.076l-0.29 1.447 0.289 1.4c0.008 0.045 0.090 0.076 0.191 0.076s0.183-0.030 0.192-0.075zM2.723 13.832l0.277-2.164-0.277-3.348c-0.009-0.084-0.114-0.152-0.239-0.152-0.127 0-0.233 0.068-0.238 0.152l-0.246 3.348 0.246 2.164c0.006 0.086 0.111 0.152 0.238 0.152 0.125 0 0.23-0.066 0.239-0.152zM4.768 13.797l0.232-2.127-0.232-4.457c-0.006-0.106-0.129-0.188-0.282-0.188s-0.275 0.082-0.281 0.188l-0.205 4.457 0.205 2.129c0.006 0.103 0.129 0.186 0.281 0.186 0.153-0.001 0.276-0.083 0.282-0.188zM6.81 13.766l0.19-2.096-0.19-4.49c-0.005-0.123-0.146-0.221-0.32-0.221-0.176 0-0.316 0.098-0.321 0.221l-0.169 4.49 0.17 2.096c0.004 0.123 0.145 0.221 0.32 0.221s0.315-0.096 0.32-0.221zM8.85 13.738l0.15-2.066-0.15-5.149c-0.004-0.142-0.164-0.255-0.358-0.255s-0.354 0.115-0.357 0.256l-0.135 5.146 0.135 2.068c0.003 0.141 0.163 0.256 0.357 0.256s0.354-0.113 0.358-0.256zM10.277 13.996c0.008 0 7.1 0.004 7.145 0.004 1.424 0 2.578-1.117 2.578-2.494s-1.154-2.492-2.578-2.492c-0.353 0-0.689 0.070-0.996 0.193-0.205-2.246-2.153-4.008-4.529-4.008-0.581 0-1.148 0.111-1.648 0.297-0.196 0.074-0.247 0.148-0.249 0.295v7.91c0.002 0.153 0.124 0.279 0.277 0.295z"></path>
</symbol>
<symbol id="icon-facebook111" viewBox="0 0 20 20">
<path d="M17 1h-14c-1.1 0-2 0.9-2 2v14c0 1.101 0.9 2 2 2h7v-7h-2v-2.475h2v-2.050c0-2.164 1.212-3.684 3.766-3.684l1.803 0.002v2.605h-1.197c-0.994 0-1.372 0.746-1.372 1.438v1.69h2.568l-0.568 2.474h-2v7h4c1.1 0 2-0.899 2-2v-14c0-1.1-0.9-2-2-2z"></path>
</symbol>
<symbol id="icon-linkedin" viewBox="0 0 20 20">
<path d="M5 3c0 1.062-0.71 1.976-2.001 1.976-1.215 0-1.999-0.862-1.999-1.924 0-1.090 0.76-2.052 2-2.052s1.976 0.91 2 2zM1 19v-13h4v13h-4z"></path>
<path d="M7 10.444c0-1.545-0.051-2.836-0.102-3.951h3.594l0.178 1.723h0.076c0.506-0.811 1.746-2 3.822-2 2.532 0 4.432 1.695 4.432 5.342v7.442h-4v-6.861c0-1.594-0.607-2.81-2-2.81-1.062 0-1.594 0.86-1.873 1.569-0.102 0.254-0.127 0.608-0.127 0.963v7.139h-4v-8.556z"></path>
</symbol>
<symbol id="icon-pinterest" viewBox="0 0 20 20">
<path d="M8.617 13.227c-0.526 2.754-1.167 5.394-3.068 6.773-0.586-4.162 0.861-7.287 1.534-10.605-1.147-1.93 0.138-5.812 2.555-4.855 2.975 1.176-2.576 7.172 1.15 7.922 3.891 0.781 5.479-6.75 3.066-9.199-3.485-3.538-10.146-0.083-9.326 4.982 0.199 1.238 1.478 1.613 0.511 3.322-2.231-0.494-2.897-2.254-2.811-4.6 0.138-3.84 3.449-6.527 6.771-6.9 4.201-0.471 8.144 1.543 8.689 5.494 0.613 4.461-1.896 9.293-6.389 8.945-1.218-0.095-1.728-0.699-2.682-1.279z"></path>
</symbol>
<symbol id="icon-twitter-with-circle" viewBox="0 0 20 20">
<path d="M10 0.4c-5.302 0-9.6 4.298-9.6 9.6s4.298 9.6 9.6 9.6 9.6-4.298 9.6-9.6-4.298-9.6-9.6-9.6zM13.905 8.264c0.004 0.082 0.005 0.164 0.005 0.244 0 2.5-1.901 5.381-5.379 5.381-1.068 0-2.062-0.312-2.898-0.85 0.147 0.018 0.298 0.025 0.451 0.025 0.886 0 1.701-0.301 2.348-0.809-0.827-0.016-1.525-0.562-1.766-1.312 0.115 0.021 0.233 0.033 0.355 0.033 0.172 0 0.34-0.023 0.498-0.066-0.865-0.174-1.517-0.938-1.517-1.854v-0.023c0.255 0.141 0.547 0.227 0.857 0.237-0.508-0.34-0.841-0.918-0.841-1.575 0-0.346 0.093-0.672 0.256-0.951 0.933 1.144 2.325 1.896 3.897 1.977-0.033-0.139-0.049-0.283-0.049-0.432 0-1.043 0.846-1.891 1.891-1.891 0.543 0 1.035 0.23 1.38 0.598 0.431-0.086 0.835-0.242 1.2-0.459-0.141 0.441-0.44 0.812-0.831 1.047 0.383-0.047 0.747-0.148 1.086-0.299-0.253 0.379-0.574 0.713-0.943 0.979z"></path>
</symbol>
<symbol id="icon-twitter" viewBox="0 0 20 20">
<path d="M17.316 6.246c0.008 0.162 0.011 0.326 0.011 0.488 0 4.99-3.797 10.742-10.74 10.742-2.133 0-4.116-0.625-5.787-1.697 0.296 0.035 0.596 0.053 0.9 0.053 1.77 0 3.397-0.604 4.688-1.615-1.651-0.031-3.046-1.121-3.526-2.621 0.23 0.043 0.467 0.066 0.71 0.066 0.345 0 0.679-0.045 0.995-0.131-1.727-0.348-3.028-1.873-3.028-3.703 0-0.016 0-0.031 0-0.047 0.509 0.283 1.092 0.453 1.71 0.473-1.013-0.678-1.68-1.832-1.68-3.143 0-0.691 0.186-1.34 0.512-1.898 1.861 2.285 4.644 3.787 7.781 3.945-0.064-0.277-0.097-0.564-0.097-0.861 0-2.084 1.689-3.773 3.774-3.773 1.086 0 2.067 0.457 2.756 1.191 0.859-0.17 1.667-0.484 2.397-0.916-0.282 0.881-0.881 1.621-1.66 2.088 0.764-0.092 1.49-0.293 2.168-0.594-0.506 0.758-1.146 1.422-1.884 1.953z"></path>
</symbol>
</defs>
</svg>
